<svg width="384" height="262" xmlns="http://www.w3.org/2000/svg" xmlns:xlink="http://www.w3.org/1999/xlink" overflow="hidden"><defs><clipPath id="clip0"><rect x="174" y="471" width="384" height="262"/></clipPath><clipPath id="clip1"><rect x="238" y="471" width="320" height="228"/></clipPath><clipPath id="clip2"><rect x="385" y="702" width="42" height="40"/></clipPath></defs><g clip-path="url(#clip0)" transform="translate(-174 -471)"><path d="M0 0 383.815 0 383.815 270.52 0 270.52Z" fill="#FFFFFF" transform="matrix(1 0 0 1.00198 174 471.32)"/><path d="M382.081 1.7341 231.792 209.827 81.5029 1.7341Z" fill="#FFFFFF" transform="matrix(1 0 0 1.00198 174 471.32)"/><g clip-path="url(#clip1)"><path d="M127.168-45.0867 335.26 105.202 127.168 255.491Z" stroke="#000000" stroke-width="1.15607" stroke-miterlimit="10" fill="none" transform="matrix(0 1.00198 -1 0 510.994 345.638)"/></g><path d="M260.116 72.8324 244.858 72.8324 244.822 57.0749" stroke="#000000" stroke-width="1.15607" stroke-miterlimit="10" fill="none" transform="matrix(1 0 0 1.00198 174.578 471.9)"/><path d="M244.798 51.0056 248.868 59.086 244.822 57.0749 240.776 59.1101Z" stroke="#000000" stroke-width="1.15607" stroke-miterlimit="10" transform="matrix(1 0 0 1.00198 174.578 471.9)"/><path d="M173.41 72.8324 289.017 72.8324 289.017 107.514 173.41 107.514Z" stroke="#B8514F" stroke-width="1.15607" fill="#F8CCCA" transform="matrix(1 0 0 1.00198 174.578 471.9)"/><path d="M1.30058 0 1.30058-9.92293 2.60116-9.92293 2.60116 0Z" transform="matrix(1 0 0 1.00198 363.939 566.306)"/><path d="M0.915222 0 0.915222-7.20136 2.02312-7.20136 2.02312-6.1657C2.53492-6.94845 3.29961-7.34585 4.31118-7.34585 4.74469-7.34585 5.13608-7.26156 5.49133-7.10502 5.85862-6.96049 6.12957-6.75578 6.31021-6.50289 6.48482-6.26204 6.61127-5.96099 6.69557-5.61175 6.74374-5.38295 6.76782-4.99157 6.76782-4.4316L6.76782 0 5.5395 0 5.5395-4.38343C5.5395-4.87716 5.49133-5.25048 5.39499-5.49133 5.29865-5.73218 5.13005-5.92486 4.88922-6.06936 4.64835-6.22591 4.36536-6.31021 4.04624-6.31021 3.52842-6.31021 3.08285-6.14163 2.6975-5.80442 2.32418-5.47929 2.14354-4.85309 2.14354-3.92583L2.14354 0Z" transform="matrix(1 0 0 1.00198 367.793 566.306)"/><path d="M3.58862-1.08381 3.75723-0.0240848C3.40197 0.0541907 3.09489 0.0963391 2.842 0.0963391 2.39041 0.0963391 2.0472 0.0240848 1.80637-0.120424 1.5655-0.264933 1.38488-0.445568 1.27649-0.674374 1.18015-0.897158 1.13198-1.37283 1.13198-2.09538L1.13198-6.23797 0.240848-6.23797 0.240848-7.20136 1.13198-7.20136 1.13198-8.98361 2.36031-9.70617 2.36031-7.20136 3.58862-7.20136 3.58862-6.23797 2.36031-6.23797 2.36031-2.0472C2.36031-1.69196 2.37235-1.46917 2.40848-1.37283 2.45665-1.27649 2.52889-1.1922 2.62523-1.13198 2.72157-1.06575 2.85404-1.03565 3.03468-1.03565 3.17919-1.03565 3.35983-1.04769 3.58862-1.08381Z" transform="matrix(1 0 0 1.00198 375.509 566.306)"/><path d="M5.82852-2.31214 7.10502-2.16763C6.89427-1.42702 6.51493-0.848988 5.97302-0.433526 5.44316-0.0301059 4.75675 0.168593 3.92583 0.168593 2.87813 0.168593 2.0472-0.15053 1.421-0.794798 0.806841-1.45111 0.50578-2.36634 0.50578-3.54047 0.50578-4.74469 0.818882-5.67197 1.44509-6.3343 2.07129-7.00868 2.87813-7.34585 3.87764-7.34585 4.84103-7.34585 5.61777-7.01469 6.21387-6.35838 6.82201-5.71411 7.12909-4.79889 7.12909-3.61272 7.12909-3.52842 7.12909-3.42004 7.12909-3.27553L1.75818-3.27553C1.80637-2.48675 2.02915-1.88464 2.43255-1.46917 2.82997-1.04769 3.33574-0.842967 3.9499-0.842967 4.39547-0.842967 4.77481-0.951349 5.0819-1.18015 5.40102-1.421 5.64788-1.79431 5.82852-2.31214ZM1.83044-4.28709 5.85261-4.28709C5.80442-4.89523 5.64788-5.35285 5.39499-5.65993 5.00963-6.12356 4.50386-6.35838 3.87764-6.35838 3.31166-6.35838 2.842-6.1657 2.45665-5.78035 2.08333-5.40703 1.87861-4.91329 1.83044-4.28709Z" transform="matrix(1 0 0 1.00198 379.363 566.306)"/><path d="M0.891137 0 0.891137-7.20136 1.99904-7.20136 1.99904-6.09344C2.27-6.60526 2.52889-6.94244 2.76976-7.10502 3.01059-7.26156 3.27553-7.34585 3.56455-7.34585 3.96194-7.34585 4.38343-7.21339 4.81696-6.96049L4.38343-5.82852C4.09441-6.00313 3.79336-6.09344 3.49229-6.09344 3.23339-6.09344 2.99254-6.00916 2.76976-5.85261 2.55901-5.69003 2.40848-5.46725 2.31214-5.17824 2.17967-4.74469 2.11946-4.26903 2.11946-3.75723L2.11946 0Z" transform="matrix(1 0 0 1.00198 387.077 566.306)"/><path d="M0.915222 0 0.915222-7.20136 2.02312-7.20136 2.02312-6.1657C2.53492-6.94845 3.29961-7.34585 4.31118-7.34585 4.74469-7.34585 5.13608-7.26156 5.49133-7.10502 5.85862-6.96049 6.12957-6.75578 6.31021-6.50289 6.48482-6.26204 6.61127-5.96099 6.69557-5.61175 6.74374-5.38295 6.76782-4.99157 6.76782-4.4316L6.76782 0 5.5395 0 5.5395-4.38343C5.5395-4.87716 5.49133-5.25048 5.39499-5.49133 5.29865-5.73218 5.13005-5.92486 4.88922-6.06936 4.64835-6.22591 4.36536-6.31021 4.04624-6.31021 3.52842-6.31021 3.08285-6.14163 2.6975-5.80442 2.32418-5.47929 2.14354-4.85309 2.14354-3.92583L2.14354 0Z" transform="matrix(1 0 0 1.00198 391.697 566.306)"/><path d="M5.61175-0.891137C5.16017-0.50578 4.72664-0.228806 4.31118-0.0722543 3.8897 0.0842967 3.44413 0.168593 2.96244 0.168593 2.17366 0.168593 1.5655-0.0240848 1.13198-0.409441 0.710502-0.794798 0.50578-1.28854 0.50578-1.90271 0.50578-2.25193 0.584055-2.57708 0.746628-2.8661 0.90318-3.15511 1.11392-3.38391 1.37283-3.56455 1.62573-3.73916 1.91474-3.87764 2.23988-3.97398 2.48074-4.02217 2.842-4.07635 3.3237-4.14258 4.31719-4.25096 5.04576-4.39547 5.51541-4.57611 5.51541-4.73266 5.51541-4.84103 5.51541-4.88922 5.51541-5.38295 5.40102-5.73218 5.17824-5.92486 4.85309-6.21387 4.38946-6.35838 3.7813-6.35838 3.20327-6.35838 2.77577-6.25 2.50482-6.04529 2.22784-5.85261 2.02915-5.49736 1.90271-4.98556L0.722543-5.13005C0.818882-5.64187 0.987476-6.0513 1.22832-6.35838 1.48121-6.6775 1.84248-6.91835 2.31214-7.08092 2.79383-7.25554 3.33574-7.34585 3.9499-7.34585 4.57611-7.34585 5.06984-7.2736 5.44316-7.12909 5.82852-6.98459 6.10549-6.79793 6.28612-6.57514 6.4788-6.36441 6.60526-6.09344 6.67148-5.75627 6.71966-5.54553 6.74374-5.17824 6.74374-4.64835L6.74374-3.01059C6.74374-1.88464 6.76782-1.16811 6.816-0.867052 6.86415-0.559971 6.96652-0.270953 7.12909 0L5.85261 0C5.72014-0.252889 5.64187-0.55395 5.61175-0.891137ZM5.51541-3.61272C5.06383-3.43208 4.39547-3.28156 3.51638-3.15511 3.01662-3.07081 2.66136-2.98651 2.45665-2.89017 2.2459-2.80587 2.08333-2.67943 1.97495-2.50482 1.86055-2.32418 1.80637-2.1315 1.80637-1.92678 1.80637-1.60163 1.92678-1.33068 2.16763-1.1079 2.40848-0.897158 2.76976-0.794798 3.25145-0.794798 3.71508-0.794798 4.13054-0.897158 4.50386-1.1079 4.87115-1.31262 5.1421-1.59562 5.32273-1.95086 5.44919-2.22183 5.51541-2.62523 5.51541-3.15511Z" transform="matrix(1 0 0 1.00198 399.413 566.306)"/><path d="M0.891137 0 0.891137-9.92293 2.09538-9.92293 2.09538 0Z" transform="matrix(1 0 0 1.00198 407.128 566.306)"/><path d="M0.626204-3.17919 1.85452-3.29961C1.91474-2.79986 2.05323-2.39041 2.26397-2.07129 2.48675-1.74614 2.82394-1.49326 3.27553-1.30058 3.72109-1.1079 4.22688-1.01156 4.79288-1.01156 5.28661-1.01156 5.73218-1.08381 6.11753-1.22832 6.50289-1.37283 6.79191-1.57153 6.98459-1.83044 7.17726-2.1014 7.2736-2.39041 7.2736-2.6975 7.2736-2.99855 7.17726-3.26349 6.98459-3.49229 6.80395-3.73315 6.50892-3.93184 6.09344-4.09441 5.83454-4.20279 5.25048-4.36536 4.33526-4.57611 3.42004-4.79889 2.77577-5.00963 2.40848-5.20231 1.93882-5.44316 1.5896-5.74422 1.34875-6.11753 1.11994-6.48482 1.01156-6.90029 1.01156-7.36994 1.01156-7.86368 1.14403-8.33333 1.421-8.76686 1.71003-9.20039 2.12549-9.52553 2.67342-9.75433 3.21532-9.97713 3.82949-10.0915 4.50386-10.0915 5.23844-10.0915 5.88872-9.9711 6.45472-9.73025 7.01469-9.50144 7.44219-9.15824 7.73121-8.6946 8.03228-8.22496 8.20086-7.70713 8.23699-7.12909L6.96049-7.03276C6.89427-7.65896 6.67148-8.12862 6.28612-8.45376 5.90076-8.77289 5.32273-8.93546 4.55202-8.93546 3.76325-8.93546 3.18522-8.79094 2.81791-8.50192 2.44461-8.2129 2.26397-7.85767 2.26397-7.44219 2.26397-7.08695 2.39041-6.79793 2.64933-6.57514 2.90221-6.3343 3.56455-6.09344 4.62428-5.85261 5.69605-5.61175 6.43666-5.40102 6.84008-5.22639 7.41811-4.96749 7.8396-4.6303 8.11656-4.21484 8.38753-3.81142 8.52601-3.33574 8.52601-2.79383 8.52601-2.27601 8.36946-1.78227 8.06841-1.30058 7.76133-0.830924 7.3278-0.469654 6.76782-0.216763 6.20183 0.0361272 5.5696 0.168593 4.86513 0.168593 3.96194 0.168593 3.20929 0.0361272 2.60116-0.216763 1.98699-0.487716 1.5053-0.879094 1.15607-1.39692 0.818882-1.92678 0.638246-2.51686 0.626204-3.17919Z" transform="matrix(1 0 0 1.00198 414.065 566.306)"/><path d="M3.58862-1.08381 3.75723-0.0240848C3.40197 0.0541907 3.09489 0.0963391 2.842 0.0963391 2.39041 0.0963391 2.0472 0.0240848 1.80637-0.120424 1.5655-0.264933 1.38488-0.445568 1.27649-0.674374 1.18015-0.897158 1.13198-1.37283 1.13198-2.09538L1.13198-6.23797 0.240848-6.23797 0.240848-7.20136 1.13198-7.20136 1.13198-8.98361 2.36031-9.70617 2.36031-7.20136 3.58862-7.20136 3.58862-6.23797 2.36031-6.23797 2.36031-2.0472C2.36031-1.69196 2.37235-1.46917 2.40848-1.37283 2.45665-1.27649 2.52889-1.1922 2.62523-1.13198 2.72157-1.06575 2.85404-1.03565 3.03468-1.03565 3.17919-1.03565 3.35983-1.04769 3.58862-1.08381Z" transform="matrix(1 0 0 1.00198 423.318 566.306)"/><path d="M5.61175-0.891137C5.16017-0.50578 4.72664-0.228806 4.31118-0.0722543 3.8897 0.0842967 3.44413 0.168593 2.96244 0.168593 2.17366 0.168593 1.5655-0.0240848 1.13198-0.409441 0.710502-0.794798 0.50578-1.28854 0.50578-1.90271 0.50578-2.25193 0.584055-2.57708 0.746628-2.8661 0.90318-3.15511 1.11392-3.38391 1.37283-3.56455 1.62573-3.73916 1.91474-3.87764 2.23988-3.97398 2.48074-4.02217 2.842-4.07635 3.3237-4.14258 4.31719-4.25096 5.04576-4.39547 5.51541-4.57611 5.51541-4.73266 5.51541-4.84103 5.51541-4.88922 5.51541-5.38295 5.40102-5.73218 5.17824-5.92486 4.85309-6.21387 4.38946-6.35838 3.7813-6.35838 3.20327-6.35838 2.77577-6.25 2.50482-6.04529 2.22784-5.85261 2.02915-5.49736 1.90271-4.98556L0.722543-5.13005C0.818882-5.64187 0.987476-6.0513 1.22832-6.35838 1.48121-6.6775 1.84248-6.91835 2.31214-7.08092 2.79383-7.25554 3.33574-7.34585 3.9499-7.34585 4.57611-7.34585 5.06984-7.2736 5.44316-7.12909 5.82852-6.98459 6.10549-6.79793 6.28612-6.57514 6.4788-6.36441 6.60526-6.09344 6.67148-5.75627 6.71966-5.54553 6.74374-5.17824 6.74374-4.64835L6.74374-3.01059C6.74374-1.88464 6.76782-1.16811 6.816-0.867052 6.86415-0.559971 6.96652-0.270953 7.12909 0L5.85261 0C5.72014-0.252889 5.64187-0.55395 5.61175-0.891137ZM5.51541-3.61272C5.06383-3.43208 4.39547-3.28156 3.51638-3.15511 3.01662-3.07081 2.66136-2.98651 2.45665-2.89017 2.2459-2.80587 2.08333-2.67943 1.97495-2.50482 1.86055-2.32418 1.80637-2.1315 1.80637-1.92678 1.80637-1.60163 1.92678-1.33068 2.16763-1.1079 2.40848-0.897158 2.76976-0.794798 3.25145-0.794798 3.71508-0.794798 4.13054-0.897158 4.50386-1.1079 4.87115-1.31262 5.1421-1.59562 5.32273-1.95086 5.44919-2.22183 5.51541-2.62523 5.51541-3.15511Z" transform="matrix(1 0 0 1.00198 427.173 566.306)"/><path d="M3.58862-1.08381 3.75723-0.0240848C3.40197 0.0541907 3.09489 0.0963391 2.842 0.0963391 2.39041 0.0963391 2.0472 0.0240848 1.80637-0.120424 1.5655-0.264933 1.38488-0.445568 1.27649-0.674374 1.18015-0.897158 1.13198-1.37283 1.13198-2.09538L1.13198-6.23797 0.240848-6.23797 0.240848-7.20136 1.13198-7.20136 1.13198-8.98361 2.36031-9.70617 2.36031-7.20136 3.58862-7.20136 3.58862-6.23797 2.36031-6.23797 2.36031-2.0472C2.36031-1.69196 2.37235-1.46917 2.40848-1.37283 2.45665-1.27649 2.52889-1.1922 2.62523-1.13198 2.72157-1.06575 2.85404-1.03565 3.03468-1.03565 3.17919-1.03565 3.35983-1.04769 3.58862-1.08381Z" transform="matrix(1 0 0 1.00198 434.888 566.306)"/><path d="M5.82852-2.31214 7.10502-2.16763C6.89427-1.42702 6.51493-0.848988 5.97302-0.433526 5.44316-0.0301059 4.75675 0.168593 3.92583 0.168593 2.87813 0.168593 2.0472-0.15053 1.421-0.794798 0.806841-1.45111 0.50578-2.36634 0.50578-3.54047 0.50578-4.74469 0.818882-5.67197 1.44509-6.3343 2.07129-7.00868 2.87813-7.34585 3.87764-7.34585 4.84103-7.34585 5.61777-7.01469 6.21387-6.35838 6.82201-5.71411 7.12909-4.79889 7.12909-3.61272 7.12909-3.52842 7.12909-3.42004 7.12909-3.27553L1.75818-3.27553C1.80637-2.48675 2.02915-1.88464 2.43255-1.46917 2.82997-1.04769 3.33574-0.842967 3.9499-0.842967 4.39547-0.842967 4.77481-0.951349 5.0819-1.18015 5.40102-1.421 5.64788-1.79431 5.82852-2.31214ZM1.83044-4.28709 5.85261-4.28709C5.80442-4.89523 5.64788-5.35285 5.39499-5.65993 5.00963-6.12356 4.50386-6.35838 3.87764-6.35838 3.31166-6.35838 2.842-6.1657 2.45665-5.78035 2.08333-5.40703 1.87861-4.91329 1.83044-4.28709Z" transform="matrix(1 0 0 1.00198 438.741 566.306)"/><path d="M299.711 49.711 309.827 49.711 309.827 90.1734 296.382 90.1734" stroke="#000000" stroke-width="1.15607" stroke-miterlimit="10" fill="none" transform="matrix(1 0 0 1.00198 174.578 471.9)"/><path d="M290.312 90.1734 298.405 86.1272 296.382 90.1734 298.405 94.2197Z" stroke="#000000" stroke-width="1.15607" stroke-miterlimit="10" transform="matrix(1 0 0 1.00198 174.578 471.9)"/><path d="M217.341 15.0289 327.168 15.0289 327.168 49.711 217.341 49.711Z" stroke="#000000" stroke-width="1.15607" fill="#FFFFFF" transform="matrix(1 0 0 1.00198 174.578 471.9)"/><path d="M0.626204-3.17919 1.85452-3.29961C1.91474-2.79986 2.05323-2.39041 2.26397-2.07129 2.48675-1.74614 2.82394-1.49326 3.27553-1.30058 3.72109-1.1079 4.22688-1.01156 4.79288-1.01156 5.28661-1.01156 5.73218-1.08381 6.11753-1.22832 6.50289-1.37283 6.79191-1.57153 6.98459-1.83044 7.17726-2.1014 7.2736-2.39041 7.2736-2.6975 7.2736-2.99855 7.17726-3.26349 6.98459-3.49229 6.80395-3.73315 6.50892-3.93184 6.09344-4.09441 5.83454-4.20279 5.25048-4.36536 4.33526-4.57611 3.42004-4.79889 2.77577-5.00963 2.40848-5.20231 1.93882-5.44316 1.5896-5.74422 1.34875-6.11753 1.11994-6.48482 1.01156-6.90029 1.01156-7.36994 1.01156-7.86368 1.14403-8.33333 1.421-8.76686 1.71003-9.20039 2.12549-9.52553 2.67342-9.75433 3.21532-9.97713 3.82949-10.0915 4.50386-10.0915 5.23844-10.0915 5.88872-9.9711 6.45472-9.73025 7.01469-9.50144 7.44219-9.15824 7.73121-8.6946 8.03228-8.22496 8.20086-7.70713 8.23699-7.12909L6.96049-7.03276C6.89427-7.65896 6.67148-8.12862 6.28612-8.45376 5.90076-8.77289 5.32273-8.93546 4.55202-8.93546 3.76325-8.93546 3.18522-8.79094 2.81791-8.50192 2.44461-8.2129 2.26397-7.85767 2.26397-7.44219 2.26397-7.08695 2.39041-6.79793 2.64933-6.57514 2.90221-6.3343 3.56455-6.09344 4.62428-5.85261 5.69605-5.61175 6.43666-5.40102 6.84008-5.22639 7.41811-4.96749 7.8396-4.6303 8.11656-4.21484 8.38753-3.81142 8.52601-3.33574 8.52601-2.79383 8.52601-2.27601 8.36946-1.78227 8.06841-1.30058 7.76133-0.830924 7.3278-0.469654 6.76782-0.216763 6.20183 0.0361272 5.5696 0.168593 4.86513 0.168593 3.96194 0.168593 3.20929 0.0361272 2.60116-0.216763 1.98699-0.487716 1.5053-0.879094 1.15607-1.39692 0.818882-1.92678 0.638246-2.51686 0.626204-3.17919Z" transform="matrix(1 0 0 1.00198 399.976 500.28)"/><path d="M3.58862-1.08381 3.75723-0.0240848C3.40197 0.0541907 3.09489 0.0963391 2.842 0.0963391 2.39041 0.0963391 2.0472 0.0240848 1.80637-0.120424 1.5655-0.264933 1.38488-0.445568 1.27649-0.674374 1.18015-0.897158 1.13198-1.37283 1.13198-2.09538L1.13198-6.23797 0.240848-6.23797 0.240848-7.20136 1.13198-7.20136 1.13198-8.98361 2.36031-9.70617 2.36031-7.20136 3.58862-7.20136 3.58862-6.23797 2.36031-6.23797 2.36031-2.0472C2.36031-1.69196 2.37235-1.46917 2.40848-1.37283 2.45665-1.27649 2.52889-1.1922 2.62523-1.13198 2.72157-1.06575 2.85404-1.03565 3.03468-1.03565 3.17919-1.03565 3.35983-1.04769 3.58862-1.08381Z" transform="matrix(1 0 0 1.00198 409.228 500.28)"/><path d="M5.61175-0.891137C5.16017-0.50578 4.72664-0.228806 4.31118-0.0722543 3.8897 0.0842967 3.44413 0.168593 2.96244 0.168593 2.17366 0.168593 1.5655-0.0240848 1.13198-0.409441 0.710502-0.794798 0.50578-1.28854 0.50578-1.90271 0.50578-2.25193 0.584055-2.57708 0.746628-2.8661 0.90318-3.15511 1.11392-3.38391 1.37283-3.56455 1.62573-3.73916 1.91474-3.87764 2.23988-3.97398 2.48074-4.02217 2.842-4.07635 3.3237-4.14258 4.31719-4.25096 5.04576-4.39547 5.51541-4.57611 5.51541-4.73266 5.51541-4.84103 5.51541-4.88922 5.51541-5.38295 5.40102-5.73218 5.17824-5.92486 4.85309-6.21387 4.38946-6.35838 3.7813-6.35838 3.20327-6.35838 2.77577-6.25 2.50482-6.04529 2.22784-5.85261 2.02915-5.49736 1.90271-4.98556L0.722543-5.13005C0.818882-5.64187 0.987476-6.0513 1.22832-6.35838 1.48121-6.6775 1.84248-6.91835 2.31214-7.08092 2.79383-7.25554 3.33574-7.34585 3.9499-7.34585 4.57611-7.34585 5.06984-7.2736 5.44316-7.12909 5.82852-6.98459 6.10549-6.79793 6.28612-6.57514 6.4788-6.36441 6.60526-6.09344 6.67148-5.75627 6.71966-5.54553 6.74374-5.17824 6.74374-4.64835L6.74374-3.01059C6.74374-1.88464 6.76782-1.16811 6.816-0.867052 6.86415-0.559971 6.96652-0.270953 7.12909 0L5.85261 0C5.72014-0.252889 5.64187-0.55395 5.61175-0.891137ZM5.51541-3.61272C5.06383-3.43208 4.39547-3.28156 3.51638-3.15511 3.01662-3.07081 2.66136-2.98651 2.45665-2.89017 2.2459-2.80587 2.08333-2.67943 1.97495-2.50482 1.86055-2.32418 1.80637-2.1315 1.80637-1.92678 1.80637-1.60163 1.92678-1.33068 2.16763-1.1079 2.40848-0.897158 2.76976-0.794798 3.25145-0.794798 3.71508-0.794798 4.13054-0.897158 4.50386-1.1079 4.87115-1.31262 5.1421-1.59562 5.32273-1.95086 5.44919-2.22183 5.51541-2.62523 5.51541-3.15511Z" transform="matrix(1 0 0 1.00198 413.083 500.28)"/><path d="M3.58862-1.08381 3.75723-0.0240848C3.40197 0.0541907 3.09489 0.0963391 2.842 0.0963391 2.39041 0.0963391 2.0472 0.0240848 1.80637-0.120424 1.5655-0.264933 1.38488-0.445568 1.27649-0.674374 1.18015-0.897158 1.13198-1.37283 1.13198-2.09538L1.13198-6.23797 0.240848-6.23797 0.240848-7.20136 1.13198-7.20136 1.13198-8.98361 2.36031-9.70617 2.36031-7.20136 3.58862-7.20136 3.58862-6.23797 2.36031-6.23797 2.36031-2.0472C2.36031-1.69196 2.37235-1.46917 2.40848-1.37283 2.45665-1.27649 2.52889-1.1922 2.62523-1.13198 2.72157-1.06575 2.85404-1.03565 3.03468-1.03565 3.17919-1.03565 3.35983-1.04769 3.58862-1.08381Z" transform="matrix(1 0 0 1.00198 420.798 500.28)"/><path d="M5.82852-2.31214 7.10502-2.16763C6.89427-1.42702 6.51493-0.848988 5.97302-0.433526 5.44316-0.0301059 4.75675 0.168593 3.92583 0.168593 2.87813 0.168593 2.0472-0.15053 1.421-0.794798 0.806841-1.45111 0.50578-2.36634 0.50578-3.54047 0.50578-4.74469 0.818882-5.67197 1.44509-6.3343 2.07129-7.00868 2.87813-7.34585 3.87764-7.34585 4.84103-7.34585 5.61777-7.01469 6.21387-6.35838 6.82201-5.71411 7.12909-4.79889 7.12909-3.61272 7.12909-3.52842 7.12909-3.42004 7.12909-3.27553L1.75818-3.27553C1.80637-2.48675 2.02915-1.88464 2.43255-1.46917 2.82997-1.04769 3.33574-0.842967 3.9499-0.842967 4.39547-0.842967 4.77481-0.951349 5.0819-1.18015 5.40102-1.421 5.64788-1.79431 5.82852-2.31214ZM1.83044-4.28709 5.85261-4.28709C5.80442-4.89523 5.64788-5.35285 5.39499-5.65993 5.00963-6.12356 4.50386-6.35838 3.87764-6.35838 3.31166-6.35838 2.842-6.1657 2.45665-5.78035 2.08333-5.40703 1.87861-4.91329 1.83044-4.28709Z" transform="matrix(1 0 0 1.00198 424.653 500.28)"/><path d="M5.61175-2.62523 6.816-2.48074C6.68353-1.64379 6.34634-0.993497 5.80442-0.529865 5.25651-0.0602119 4.58815 0.168593 3.80539 0.168593 2.82394 0.168593 2.03516-0.15053 1.44509-0.794798 0.848988-1.43305 0.55395-2.36031 0.55395-3.56455 0.55395-4.3473 0.680395-5.03371 0.939306-5.61175 1.1922-6.18978 1.57756-6.62332 2.09538-6.91234 2.62523-7.20136 3.20327-7.34585 3.82949-7.34585 4.6002-7.34585 5.23242-7.14113 5.73218-6.74374 6.22591-6.35838 6.55106-5.80442 6.69557-5.0819L5.51541-4.88922C5.40102-5.37091 5.20231-5.73218 4.91329-5.97302 4.62428-6.22591 4.27505-6.35838 3.87764-6.35838 3.25145-6.35838 2.74566-6.12957 2.36031-5.68401 1.98699-5.25048 1.80637-4.55804 1.80637-3.61272 1.80637-2.63126 1.98699-1.92678 2.36031-1.49326 2.7276-1.05973 3.20929-0.842967 3.80539-0.842967 4.28709-0.842967 4.68449-0.987476 5.00963-1.27649 5.32876-1.5655 5.52746-2.01108 5.61175-2.62523Z" transform="matrix(1 0 0 1.00198 436.223 500.28)"/><path d="M0.915222 0 0.915222-9.92293 2.14354-9.92293 2.14354-6.35838C2.70352-7.01469 3.42004-7.34585 4.28709-7.34585 4.81696-7.34585 5.27457-7.23747 5.65993-7.03276 6.05733-6.82201 6.34032-6.53299 6.50289-6.1657 6.6775-5.79239 6.76782-5.25651 6.76782-4.55202L6.76782 0 5.56359 0 5.56359-4.55202C5.56359-5.16017 5.42509-5.59971 5.15414-5.87669 4.89523-6.1657 4.52794-6.31021 4.04624-6.31021 3.67292-6.31021 3.32973-6.21387 3.01059-6.02119 2.68546-5.84056 2.46267-5.5937 2.33622-5.27457 2.20376-4.94943 2.14354-4.50386 2.14354-3.92583L2.14354 0Z" transform="matrix(1 0 0 1.00198 443.159 500.28)"/><path d="M5.61175-0.891137C5.16017-0.50578 4.72664-0.228806 4.31118-0.0722543 3.8897 0.0842967 3.44413 0.168593 2.96244 0.168593 2.17366 0.168593 1.5655-0.0240848 1.13198-0.409441 0.710502-0.794798 0.50578-1.28854 0.50578-1.90271 0.50578-2.25193 0.584055-2.57708 0.746628-2.8661 0.90318-3.15511 1.11392-3.38391 1.37283-3.56455 1.62573-3.73916 1.91474-3.87764 2.23988-3.97398 2.48074-4.02217 2.842-4.07635 3.3237-4.14258 4.31719-4.25096 5.04576-4.39547 5.51541-4.57611 5.51541-4.73266 5.51541-4.84103 5.51541-4.88922 5.51541-5.38295 5.40102-5.73218 5.17824-5.92486 4.85309-6.21387 4.38946-6.35838 3.7813-6.35838 3.20327-6.35838 2.77577-6.25 2.50482-6.04529 2.22784-5.85261 2.02915-5.49736 1.90271-4.98556L0.722543-5.13005C0.818882-5.64187 0.987476-6.0513 1.22832-6.35838 1.48121-6.6775 1.84248-6.91835 2.31214-7.08092 2.79383-7.25554 3.33574-7.34585 3.9499-7.34585 4.57611-7.34585 5.06984-7.2736 5.44316-7.12909 5.82852-6.98459 6.10549-6.79793 6.28612-6.57514 6.4788-6.36441 6.60526-6.09344 6.67148-5.75627 6.71966-5.54553 6.74374-5.17824 6.74374-4.64835L6.74374-3.01059C6.74374-1.88464 6.76782-1.16811 6.816-0.867052 6.86415-0.559971 6.96652-0.270953 7.12909 0L5.85261 0C5.72014-0.252889 5.64187-0.55395 5.61175-0.891137ZM5.51541-3.61272C5.06383-3.43208 4.39547-3.28156 3.51638-3.15511 3.01662-3.07081 2.66136-2.98651 2.45665-2.89017 2.2459-2.80587 2.08333-2.67943 1.97495-2.50482 1.86055-2.32418 1.80637-2.1315 1.80637-1.92678 1.80637-1.60163 1.92678-1.33068 2.16763-1.1079 2.40848-0.897158 2.76976-0.794798 3.25145-0.794798 3.71508-0.794798 4.13054-0.897158 4.50386-1.1079 4.87115-1.31262 5.1421-1.59562 5.32273-1.95086 5.44919-2.22183 5.51541-2.62523 5.51541-3.15511Z" transform="matrix(1 0 0 1.00198 450.874 500.28)"/><path d="M0.915222 0 0.915222-7.20136 2.02312-7.20136 2.02312-6.1657C2.53492-6.94845 3.29961-7.34585 4.31118-7.34585 4.74469-7.34585 5.13608-7.26156 5.49133-7.10502 5.85862-6.96049 6.12957-6.75578 6.31021-6.50289 6.48482-6.26204 6.61127-5.96099 6.69557-5.61175 6.74374-5.38295 6.76782-4.99157 6.76782-4.4316L6.76782 0 5.5395 0 5.5395-4.38343C5.5395-4.87716 5.49133-5.25048 5.39499-5.49133 5.29865-5.73218 5.13005-5.92486 4.88922-6.06936 4.64835-6.22591 4.36536-6.31021 4.04624-6.31021 3.52842-6.31021 3.08285-6.14163 2.6975-5.80442 2.32418-5.47929 2.14354-4.85309 2.14354-3.92583L2.14354 0Z" transform="matrix(1 0 0 1.00198 458.589 500.28)"/><path d="M0.698459 0.602119 1.87861 0.770713C1.92678 1.13801 2.05925 1.40294 2.28806 1.5655 2.58912 1.7883 3.01059 1.90271 3.54047 1.90271 4.10044 1.90271 4.53397 1.7883 4.84103 1.5655 5.1421 1.33671 5.35285 1.0236 5.46725 0.626204 5.52746 0.367292 5.55154-0.15053 5.5395-0.939306 5.00963-0.313102 4.3473 0 3.56455 0 2.56503 0 1.79431-0.349229 1.25241-1.05973 0.722543-1.78227 0.457611-2.63729 0.457611-3.63681 0.457611-4.32322 0.578035-4.96146 0.818882-5.5395 1.07177-6.11753 1.43305-6.55709 1.90271-6.86415 2.36634-7.18329 2.92028-7.34585 3.56455-7.34585 4.41353-7.34585 5.112-7.00868 5.65993-6.3343L5.65993-7.20136 6.79191-7.20136 6.79191-0.987476C6.79191 0.132466 6.67148 0.927263 6.43064 1.39692 6.20183 1.86055 5.84056 2.22784 5.34682 2.50482 4.86513 2.77577 4.263 2.91425 3.54047 2.91425 2.67342 2.91425 1.97495 2.72157 1.44509 2.33622 0.927263 1.95086 0.680395 1.37283 0.698459 0.602119ZM1.71003-3.73315C1.71003-2.7818 1.89065-2.09538 2.26397-1.66184 2.63126-1.22832 3.09489-1.01156 3.66089-1.01156 4.22086-1.01156 4.69654-1.22832 5.0819-1.66184 5.46725-2.09538 5.65993-2.76976 5.65993-3.68496 5.65993-4.56407 5.4552-5.23242 5.0578-5.68401 4.67245-6.12957 4.20279-6.35838 3.66089-6.35838 3.11296-6.35838 2.64933-6.12957 2.26397-5.68401 1.89065-5.25048 1.71003-4.6002 1.71003-3.73315Z" transform="matrix(1 0 0 1.00198 466.305 500.28)"/><path d="M0.915222-8.52601 0.915222-9.92293 2.14354-9.92293 2.14354-8.52601ZM0.915222 0 0.915222-7.20136 2.14354-7.20136 2.14354 0Z" transform="matrix(1 0 0 1.00198 474.02 500.28)"/><path d="M0.915222 0 0.915222-7.20136 2.02312-7.20136 2.02312-6.1657C2.53492-6.94845 3.29961-7.34585 4.31118-7.34585 4.74469-7.34585 5.13608-7.26156 5.49133-7.10502 5.85862-6.96049 6.12957-6.75578 6.31021-6.50289 6.48482-6.26204 6.61127-5.96099 6.69557-5.61175 6.74374-5.38295 6.76782-4.99157 6.76782-4.4316L6.76782 0 5.5395 0 5.5395-4.38343C5.5395-4.87716 5.49133-5.25048 5.39499-5.49133 5.29865-5.73218 5.13005-5.92486 4.88922-6.06936 4.64835-6.22591 4.36536-6.31021 4.04624-6.31021 3.52842-6.31021 3.08285-6.14163 2.6975-5.80442 2.32418-5.47929 2.14354-4.85309 2.14354-3.92583L2.14354 0Z" transform="matrix(1 0 0 1.00198 477.103 500.28)"/><path d="M0.698459 0.602119 1.87861 0.770713C1.92678 1.13801 2.05925 1.40294 2.28806 1.5655 2.58912 1.7883 3.01059 1.90271 3.54047 1.90271 4.10044 1.90271 4.53397 1.7883 4.84103 1.5655 5.1421 1.33671 5.35285 1.0236 5.46725 0.626204 5.52746 0.367292 5.55154-0.15053 5.5395-0.939306 5.00963-0.313102 4.3473 0 3.56455 0 2.56503 0 1.79431-0.349229 1.25241-1.05973 0.722543-1.78227 0.457611-2.63729 0.457611-3.63681 0.457611-4.32322 0.578035-4.96146 0.818882-5.5395 1.07177-6.11753 1.43305-6.55709 1.90271-6.86415 2.36634-7.18329 2.92028-7.34585 3.56455-7.34585 4.41353-7.34585 5.112-7.00868 5.65993-6.3343L5.65993-7.20136 6.79191-7.20136 6.79191-0.987476C6.79191 0.132466 6.67148 0.927263 6.43064 1.39692 6.20183 1.86055 5.84056 2.22784 5.34682 2.50482 4.86513 2.77577 4.263 2.91425 3.54047 2.91425 2.67342 2.91425 1.97495 2.72157 1.44509 2.33622 0.927263 1.95086 0.680395 1.37283 0.698459 0.602119ZM1.71003-3.73315C1.71003-2.7818 1.89065-2.09538 2.26397-1.66184 2.63126-1.22832 3.09489-1.01156 3.66089-1.01156 4.22086-1.01156 4.69654-1.22832 5.0819-1.66184 5.46725-2.09538 5.65993-2.76976 5.65993-3.68496 5.65993-4.56407 5.4552-5.23242 5.0578-5.68401 4.67245-6.12957 4.20279-6.35838 3.66089-6.35838 3.11296-6.35838 2.64933-6.12957 2.26397-5.68401 1.89065-5.25048 1.71003-4.6002 1.71003-3.73315Z" transform="matrix(1 0 0 1.00198 484.818 500.28)"/><path d="M1.13198 0 1.13198-9.92293 7.82755-9.92293 7.82755-8.76686 2.45665-8.76686 2.45665-5.68401 7.10502-5.68401 7.10502-4.50386 2.45665-4.50386 2.45665 0Z" transform="matrix(1 0 0 1.00198 419.646 517.655)"/><path d="M5.63584 0 5.63584-1.05973C5.06984-0.240848 4.31118 0.168593 3.34779 0.168593 2.9263 0.168593 2.53492 0.0842967 2.16763-0.0722543 1.79431-0.246869 1.51734-0.457611 1.32466-0.698459 1.14403-0.939306 1.0236-1.23434 0.963391-1.5896 0.915222-1.83044 0.891137-2.2158 0.891137-2.74566L0.891137-7.20136 2.09538-7.20136 2.09538-3.20327C2.09538-2.55901 2.12549-2.1315 2.19172-1.92678 2.25193-1.60163 2.40848-1.34875 2.64933-1.15607 2.90221-0.975433 3.21532-0.891137 3.58862-0.891137 3.95593-0.891137 4.29913-0.975433 4.62428-1.15607 4.9434-1.34875 5.16618-1.60163 5.29865-1.92678 5.42509-2.2459 5.49133-2.72157 5.49133-3.34779L5.49133-7.20136 6.71966-7.20136 6.71966 0Z" transform="matrix(1 0 0 1.00198 428.121 517.655)"/><path d="M0.915222 0 0.915222-7.20136 2.02312-7.20136 2.02312-6.1657C2.53492-6.94845 3.29961-7.34585 4.31118-7.34585 4.74469-7.34585 5.13608-7.26156 5.49133-7.10502 5.85862-6.96049 6.12957-6.75578 6.31021-6.50289 6.48482-6.26204 6.61127-5.96099 6.69557-5.61175 6.74374-5.38295 6.76782-4.99157 6.76782-4.4316L6.76782 0 5.5395 0 5.5395-4.38343C5.5395-4.87716 5.49133-5.25048 5.39499-5.49133 5.29865-5.73218 5.13005-5.92486 4.88922-6.06936 4.64835-6.22591 4.36536-6.31021 4.04624-6.31021 3.52842-6.31021 3.08285-6.14163 2.6975-5.80442 2.32418-5.47929 2.14354-4.85309 2.14354-3.92583L2.14354 0Z" transform="matrix(1 0 0 1.00198 435.836 517.655)"/><path d="M5.61175-2.62523 6.816-2.48074C6.68353-1.64379 6.34634-0.993497 5.80442-0.529865 5.25651-0.0602119 4.58815 0.168593 3.80539 0.168593 2.82394 0.168593 2.03516-0.15053 1.44509-0.794798 0.848988-1.43305 0.55395-2.36031 0.55395-3.56455 0.55395-4.3473 0.680395-5.03371 0.939306-5.61175 1.1922-6.18978 1.57756-6.62332 2.09538-6.91234 2.62523-7.20136 3.20327-7.34585 3.82949-7.34585 4.6002-7.34585 5.23242-7.14113 5.73218-6.74374 6.22591-6.35838 6.55106-5.80442 6.69557-5.0819L5.51541-4.88922C5.40102-5.37091 5.20231-5.73218 4.91329-5.97302 4.62428-6.22591 4.27505-6.35838 3.87764-6.35838 3.25145-6.35838 2.74566-6.12957 2.36031-5.68401 1.98699-5.25048 1.80637-4.55804 1.80637-3.61272 1.80637-2.63126 1.98699-1.92678 2.36031-1.49326 2.7276-1.05973 3.20929-0.842967 3.80539-0.842967 4.28709-0.842967 4.68449-0.987476 5.00963-1.27649 5.32876-1.5655 5.52746-2.01108 5.61175-2.62523Z" transform="matrix(1 0 0 1.00198 443.552 517.655)"/><path d="M3.58862-1.08381 3.75723-0.0240848C3.40197 0.0541907 3.09489 0.0963391 2.842 0.0963391 2.39041 0.0963391 2.0472 0.0240848 1.80637-0.120424 1.5655-0.264933 1.38488-0.445568 1.27649-0.674374 1.18015-0.897158 1.13198-1.37283 1.13198-2.09538L1.13198-6.23797 0.240848-6.23797 0.240848-7.20136 1.13198-7.20136 1.13198-8.98361 2.36031-9.70617 2.36031-7.20136 3.58862-7.20136 3.58862-6.23797 2.36031-6.23797 2.36031-2.0472C2.36031-1.69196 2.37235-1.46917 2.40848-1.37283 2.45665-1.27649 2.52889-1.1922 2.62523-1.13198 2.72157-1.06575 2.85404-1.03565 3.03468-1.03565 3.17919-1.03565 3.35983-1.04769 3.58862-1.08381Z" transform="matrix(1 0 0 1.00198 450.489 517.655)"/><path d="M0.915222-8.52601 0.915222-9.92293 2.14354-9.92293 2.14354-8.52601ZM0.915222 0 0.915222-7.20136 2.14354-7.20136 2.14354 0Z" transform="matrix(1 0 0 1.00198 454.342 517.655)"/><path d="M0.457611-3.58862C0.457611-4.91932 0.824903-5.90679 1.5655-6.55106 2.19172-7.08092 2.94437-7.34585 3.82949-7.34585 4.82298-7.34585 5.63584-7.02072 6.26204-6.38246 6.88825-5.7382 7.20136-4.84706 7.20136-3.70906 7.20136-2.77577 7.05683-2.0472 6.76782-1.51734 6.49085-0.987476 6.09344-0.565993 5.56359-0.264933 5.03371 0.0240848 4.45568 0.168593 3.82949 0.168593 2.81791 0.168593 1.99904-0.15053 1.37283-0.794798 0.758671-1.45111 0.457611-2.3844 0.457611-3.58862ZM1.71003-3.58862C1.71003-2.67342 1.90872-1.98098 2.31214-1.51734 2.70953-1.06575 3.21532-0.842967 3.82949-0.842967 4.43763-0.842967 4.9434-1.06575 5.34682-1.51734 5.74422-1.98098 5.94895-2.68546 5.94895-3.63681 5.94895-4.5159 5.74422-5.19027 5.34682-5.65993 4.9434-6.12356 4.43763-6.35838 3.82949-6.35838 3.21532-6.35838 2.70953-6.12356 2.31214-5.65993 1.90872-5.20834 1.71003-4.5159 1.71003-3.58862Z" transform="matrix(1 0 0 1.00198 457.425 517.655)"/><path d="M0.915222 0 0.915222-7.20136 2.02312-7.20136 2.02312-6.1657C2.53492-6.94845 3.29961-7.34585 4.31118-7.34585 4.74469-7.34585 5.13608-7.26156 5.49133-7.10502 5.85862-6.96049 6.12957-6.75578 6.31021-6.50289 6.48482-6.26204 6.61127-5.96099 6.69557-5.61175 6.74374-5.38295 6.76782-4.99157 6.76782-4.4316L6.76782 0 5.5395 0 5.5395-4.38343C5.5395-4.87716 5.49133-5.25048 5.39499-5.49133 5.29865-5.73218 5.13005-5.92486 4.88922-6.06936 4.64835-6.22591 4.36536-6.31021 4.04624-6.31021 3.52842-6.31021 3.08285-6.14163 2.6975-5.80442 2.32418-5.47929 2.14354-4.85309 2.14354-3.92583L2.14354 0Z" transform="matrix(1 0 0 1.00198 465.14 517.655)"/><path d="M134.971 90.1734 166.046 90.1734" stroke="#000000" stroke-width="1.15607" stroke-miterlimit="10" fill="none" transform="matrix(1 0 0 1.00198 174.578 471.9)"/><path d="M172.116 90.1734 164.023 94.2197 166.046 90.1734 164.023 86.1272Z" stroke="#000000" stroke-width="1.15607" stroke-miterlimit="10" transform="matrix(1 0 0 1.00198 174.578 471.9)"/><path d="M135.549 90.7514C135.549 82.6229 128.974 76.0116 120.888 76.0116 115.493 76.0116 110.766 78.962 108.219 83.3514L84.8688 83.3514C83.8511 83.3514 82.8697 83.7367 82.1953 84.4654L82.1833 84.4714 78.2636 88.945 78.2454 88.9692C77.8842 89.4087 77.7697 89.9084 77.7577 90.3901 77.7457 90.8899 77.836 91.4198 78.2634 91.8835L78.2876 91.9195 82.4182 95.5624C83.1889 96.2308 84.1763 96.2428 85.1998 95.6287L86.0248 95.165 88.0119 96.4415C88.7766 96.9472 89.77 96.9232 90.5888 96.3692L92.4375 95.0987 94.6351 96.4294C95.0987 96.7185 95.8815 96.7425 96.4957 96.4054L98.6693 95.1349 100.367 96.3934C101.168 97.0617 102.198 97.2362 103.27 97.2362L107.725 97.2362C110.116 102.125 115.119 105.491 120.888 105.491 128.974 105.491 135.549 98.88 135.549 90.7514ZM131.443 90.5888C131.443 88.4153 129.666 86.6149 127.493 86.6149 125.319 86.6149 123.537 88.4153 123.537 90.5888 123.537 92.7746 125.319 94.5689 127.493 94.5689 129.666 94.5689 131.443 92.7746 131.443 90.5888ZM129.401 90.5888C129.401 91.6667 128.552 92.5096 127.493 92.5096 126.427 92.5096 125.596 91.6667 125.596 90.5888 125.596 89.5231 126.427 88.6801 127.493 88.6801 128.552 88.6801 129.401 89.5231 129.401 90.5888ZM103.27 95.165C102.487 95.165 101.824 94.9361 101.662 94.7857L101.632 94.7616 98.7837 92.6602 95.5744 94.587 92.3471 92.6361 89.2461 94.8217 86.1031 92.7385 83.7367 94.0933 79.8291 90.5347C79.817 90.5105 79.8049 90.4865 79.8049 90.4384 79.8169 90.3481 79.8591 90.2457 79.8411 90.2637L83.7007 85.8742C83.9897 85.5612 84.3148 85.3745 84.8688 85.3745L109.477 85.3745C111.488 81.0754 115.836 78.0828 120.888 78.0828 127.86 78.0828 133.49 83.7367 133.49 90.7514 133.49 97.7662 127.86 103.42 120.888 103.42 115.456 103.42 110.844 100 109.062 95.165Z" transform="matrix(1 0 0 1.00198 174 471.32)"/><path d="M1.15607 90.1734 77.1676 90.1734" stroke="#000000" stroke-width="1.15607" stroke-miterlimit="10" fill="none" transform="matrix(1 0 0 1.00198 174.578 471.9)"/><path d="M12.7168 83.237 67.052 83.237 67.052 98.2659 12.7168 98.2659Z" fill="#FFFFFF" transform="matrix(1 0 0 1.00198 174 471.32)"/><path d="M1.18015 0 1.18015-9.10405 2.3844-9.10405 2.3844 0Z" transform="matrix(1 0 0 1.00198 186.319 566.306)"/><path d="M0.842967 0 0.842967-6.59923 1.85452-6.59923 1.85452-5.65993C2.33622-6.38246 3.03468-6.74374 3.9499-6.74374 4.33526-6.74374 4.69654-6.67148 5.03371-6.52698 5.37091-6.38246 5.61777-6.18978 5.78035-5.94895 5.95496-5.72014 6.07539-5.44919 6.14163-5.13005 6.17173-4.93737 6.18978-4.57611 6.18978-4.04624L6.18978 0 5.0819 0 5.0819-4.02217C5.0819-4.46773 5.03371-4.80492 4.93737-5.03371 4.85309-5.25651 4.70255-5.43112 4.47977-5.56359 4.25096-5.70808 3.99807-5.78035 3.70906-5.78035 3.22736-5.78035 2.80587-5.6238 2.45665-5.32273 2.11946-5.01566 1.95086-4.44364 1.95086-3.61272L1.95086 0Z" transform="matrix(1 0 0 1.00198 189.852 566.306)"/><path d="M0.842967-7.82755 0.842967-9.10405 1.95086-9.10405 1.95086-7.82755ZM0.842967 0 0.842967-6.59923 1.95086-6.59923 1.95086 0Z" transform="matrix(1 0 0 1.00198 196.925 566.306)"/><path d="M3.27553-1.01156 3.44413-0.0240848C3.11898 0.0541907 2.842 0.0963391 2.60116 0.0963391 2.19773 0.0963391 1.88464 0.0301059 1.66184-0.0963391 1.43305-0.222784 1.27649-0.391377 1.18015-0.602119 1.08381-0.806841 1.03565-1.25241 1.03565-1.92678L1.03565-5.73218 0.216763-5.73218 0.216763-6.59923 1.03565-6.59923 1.03565-8.23699 2.14354-8.88728 2.14354-6.59923 3.27553-6.59923 3.27553-5.73218 2.14354-5.73218 2.14354-1.87861C2.14354-1.55346 2.15559-1.34875 2.19172-1.25241 2.23988-1.15607 2.3001-1.08381 2.3844-1.03565 2.48074-0.987476 2.61319-0.963391 2.79383-0.963391 2.90221-0.963391 3.06479-0.975433 3.27553-1.01156Z" transform="matrix(1 0 0 1.00198 199.75 566.306)"/><path d="M0.842967-7.82755 0.842967-9.10405 1.95086-9.10405 1.95086-7.82755ZM0.842967 0 0.842967-6.59923 1.95086-6.59923 1.95086 0Z" transform="matrix(1 0 0 1.00198 203.283 566.306)"/><path d="M5.13005-0.818882C4.72664-0.463632 4.33526-0.216763 3.9499-0.0722543 3.56455 0.0722543 3.15511 0.144509 2.72157 0.144509 1.99904 0.144509 1.43305-0.0301059 1.03565-0.385356 0.650289-0.734585 0.457611-1.18617 0.457611-1.7341 0.457611-2.05323 0.529865-2.34827 0.674374-2.62523 0.818882-2.8962 1.01156-3.11296 1.25241-3.27553 1.49326-3.43208 1.76421-3.55251 2.07129-3.63681 2.27601-3.68496 2.60718-3.73916 3.05877-3.80539 3.95593-3.90173 4.62428-4.02818 5.0578-4.19075 5.0578-4.33526 5.0578-4.4316 5.0578-4.47977 5.0578-4.92533 4.94943-5.25048 4.74469-5.44316 4.45568-5.69605 4.02818-5.82852 3.46821-5.82852 2.93834-5.82852 2.54095-5.73218 2.28806-5.5395 2.0472-5.35886 1.86055-5.03371 1.7341-4.55202L0.650289-4.72062C0.746628-5.18425 0.90318-5.56359 1.13198-5.85261 1.37283-6.14163 1.69797-6.35838 2.11946-6.50289 2.55299-6.65944 3.05877-6.74374 3.63681-6.74374 4.19678-6.74374 4.64835-6.67148 4.98556-6.52698 5.33478-6.39451 5.5937-6.22591 5.75627-6.02119 5.93088-5.82852 6.0513-5.57563 6.11753-5.27457 6.1657-5.09393 6.18978-4.75675 6.18978-4.263L6.18978-2.76976C6.18978-1.72207 6.20183-1.06575 6.23797-0.794798 6.28612-0.517824 6.38246-0.252889 6.52698 0L5.37091 0C5.25651-0.222784 5.17824-0.493737 5.13005-0.818882ZM5.0578-3.29961C4.63632-3.13705 4.02818-2.99855 3.22736-2.89017 2.7577-2.82394 2.43255-2.74566 2.23988-2.64933 2.0472-2.56503 1.90271-2.44461 1.80637-2.28806 1.71003-2.14354 1.66184-1.96291 1.66184-1.75818 1.66184-1.46917 1.77024-1.21628 1.99904-1.01156 2.22183-0.818882 2.55299-0.722543 2.98651-0.722543 3.42004-0.722543 3.79336-0.818882 4.11851-1.01156 4.45568-1.20424 4.70255-1.45713 4.86513-1.78227 4.99157-2.03516 5.0578-2.40848 5.0578-2.89017Z" transform="matrix(1 0 0 1.00198 206.109 566.306)"/><path d="M0.818882 0 0.818882-9.10405 1.92678-9.10405 1.92678 0Z" transform="matrix(1 0 0 1.00198 213.181 566.306)"/><path d="M0.939306 0 0.939306-9.10405 2.14354-9.10405 2.14354-4.6002 6.6474-9.10405 8.28516-9.10405 4.47977-5.41907 8.45376 0 6.86415 0 3.63681-4.6002 2.14354-3.15511 2.14354 0Z" transform="matrix(1 0 0 1.00198 219.539 566.306)"/><path d="M5.34682-2.11946 6.50289-1.97495C6.32225-1.30058 5.98506-0.776734 5.49133-0.409441 4.99157-0.0361272 4.36536 0.144509 3.61272 0.144509 2.64933 0.144509 1.87861-0.15053 1.30058-0.746628 0.734585-1.33671 0.457611-2.17366 0.457611-3.25145 0.457611-4.35934 0.734585-5.21435 1.30058-5.82852 1.87861-6.43666 2.62523-6.74374 3.54047-6.74374 4.41956-6.74374 5.1421-6.43666 5.70808-5.82852 6.26807-5.23242 6.55106-4.38946 6.55106-3.29961 6.55106-3.23339 6.53902-3.13705 6.52698-3.01059L1.61369-3.01059C1.66184-2.28806 1.86657-1.7341 2.23988-1.34875 2.60718-0.963391 3.06479-0.770713 3.61272-0.770713 4.02818-0.770713 4.38343-0.873073 4.67245-1.08381 4.96146-1.3066 5.18425-1.6498 5.34682-2.11946ZM1.68593-3.92583 5.37091-3.92583C5.32273-4.4858 5.17824-4.90126 4.93737-5.17824 4.58214-5.61175 4.12452-5.82852 3.56455-5.82852 3.04672-5.82852 2.61319-5.64788 2.26397-5.29865 1.90872-4.96146 1.71604-4.50386 1.68593-3.92583Z" transform="matrix(1 0 0 1.00198 228.021 566.306)"/><path d="M0.794798 2.52889 0.674374 1.49326C0.915222 1.55346 1.11994 1.5896 1.30058 1.5896 1.55346 1.5896 1.75818 1.54745 1.90271 1.46917 2.0472 1.38488 2.16763 1.26445 2.26397 1.1079 2.32418 0.993497 2.43858 0.722543 2.60116 0.289017 2.63126 0.222784 2.66136 0.132466 2.6975 0.0240848L0.216763-6.59923 1.421-6.59923 2.79383-2.76976C2.96845-2.28806 3.11898-1.78227 3.25145-1.25241 3.3779-1.76421 3.52842-2.26397 3.70906-2.74566L5.13005-6.59923 6.23797-6.59923 3.73315 0.120424C3.45617 0.842967 3.25145 1.33671 3.10693 1.61369 2.91425 1.98098 2.68546 2.2459 2.43255 2.40848 2.17366 2.58309 1.86657 2.67342 1.51734 2.67342 1.28854 2.67342 1.04769 2.62523 0.794798 2.52889Z" transform="matrix(1 0 0 1.00198 235.094 566.306)"/><path d="M231.214 107.514 231.214 250.439" stroke="#000000" stroke-width="1.15607" stroke-miterlimit="10" fill="none" transform="matrix(1 0 0 1.00198 174.578 471.9)"/><path d="M231.792 257.087 227.746 248.994 231.792 251.018 235.838 248.994Z" transform="matrix(1 0 0 1.00198 174 471.32)"/><g clip-path="url(#clip2)"><path d="M231.214 256.509 227.168 248.416 231.214 250.439 235.26 248.416Z" stroke="#000000" stroke-width="1.15607" stroke-miterlimit="10" fill="none" transform="matrix(1 0 0 1.00198 174.578 471.9)"/></g><path d="M172.254 221.965 295.954 221.965 295.954 236.994 172.254 236.994Z" fill="#FFFFFF" transform="matrix(1 0 0 1.00198 174 471.32)"/><path d="M5.25048-3.56455 5.25048-4.64835 9.10405-4.64835 9.10405-1.27649C8.50795-0.794798 7.88777-0.433526 7.24951-0.192678 6.62332 0.0301059 5.97905 0.144509 5.32273 0.144509 4.43763 0.144509 3.62476-0.0361272 2.89017-0.409441 2.16763-0.794798 1.61369-1.34875 1.22832-2.07129 0.85501-2.79383 0.674374-3.60068 0.674374-4.50386 0.674374-5.38295 0.85501-6.21387 1.22832-6.98459 1.59562-7.7553 2.12549-8.32129 2.81791-8.6946 3.5224-9.0619 4.32322-9.24856 5.22639-9.24856 5.88271-9.24856 6.4788-9.14018 7.00868-8.93546 7.55058-8.72472 7.97207-8.42967 8.26109-8.04432 8.56214-7.65896 8.79696-7.1592 8.95954-6.55106L7.87573-6.26204C7.73121-6.72567 7.55058-7.08695 7.34585-7.34585 7.15317-7.61682 6.86415-7.83357 6.4788-7.99615 6.10549-8.15269 5.69605-8.23699 5.25048-8.23699 4.68449-8.23699 4.20279-8.14668 3.80539-7.97207 3.40197-7.8095 3.08285-7.59272 2.842-7.32177 2.60116-7.04479 2.40848-6.74374 2.26397-6.40655 2.03516-5.84056 1.92678-5.23242 1.92678-4.57611 1.92678-3.76926 2.05925-3.09489 2.33622-2.55299 2.60718-2.00506 3.01059-1.59562 3.54047-1.32466 4.08237-1.06575 4.65438-0.939306 5.25048-0.939306 5.78035-0.939306 6.29215-1.03565 6.79191-1.22832 7.28564-1.43305 7.66499-1.6498 7.92388-1.87861L7.92388-3.56455Z" transform="matrix(1 0 0 1.00198 345.894 705.31)"/><path d="M5.34682-2.11946 6.50289-1.97495C6.32225-1.30058 5.98506-0.776734 5.49133-0.409441 4.99157-0.0361272 4.36536 0.144509 3.61272 0.144509 2.64933 0.144509 1.87861-0.15053 1.30058-0.746628 0.734585-1.33671 0.457611-2.17366 0.457611-3.25145 0.457611-4.35934 0.734585-5.21435 1.30058-5.82852 1.87861-6.43666 2.62523-6.74374 3.54047-6.74374 4.41956-6.74374 5.1421-6.43666 5.70808-5.82852 6.26807-5.23242 6.55106-4.38946 6.55106-3.29961 6.55106-3.23339 6.53902-3.13705 6.52698-3.01059L1.61369-3.01059C1.66184-2.28806 1.86657-1.7341 2.23988-1.34875 2.60718-0.963391 3.06479-0.770713 3.61272-0.770713 4.02818-0.770713 4.38343-0.873073 4.67245-1.08381 4.96146-1.3066 5.18425-1.6498 5.34682-2.11946ZM1.68593-3.92583 5.37091-3.92583C5.32273-4.4858 5.17824-4.90126 4.93737-5.17824 4.58214-5.61175 4.12452-5.82852 3.56455-5.82852 3.04672-5.82852 2.61319-5.64788 2.26397-5.29865 1.90872-4.96146 1.71604-4.50386 1.68593-3.92583Z" transform="matrix(1 0 0 1.00198 355.785 705.31)"/><path d="M0.842967 0 0.842967-6.59923 1.85452-6.59923 1.85452-5.65993C2.33622-6.38246 3.03468-6.74374 3.9499-6.74374 4.33526-6.74374 4.69654-6.67148 5.03371-6.52698 5.37091-6.38246 5.61777-6.18978 5.78035-5.94895 5.95496-5.72014 6.07539-5.44919 6.14163-5.13005 6.17173-4.93737 6.18978-4.57611 6.18978-4.04624L6.18978 0 5.0819 0 5.0819-4.02217C5.0819-4.46773 5.03371-4.80492 4.93737-5.03371 4.85309-5.25651 4.70255-5.43112 4.47977-5.56359 4.25096-5.70808 3.99807-5.78035 3.70906-5.78035 3.22736-5.78035 2.80587-5.6238 2.45665-5.32273 2.11946-5.01566 1.95086-4.44364 1.95086-3.61272L1.95086 0Z" transform="matrix(1 0 0 1.00198 362.857 705.31)"/><path d="M5.34682-2.11946 6.50289-1.97495C6.32225-1.30058 5.98506-0.776734 5.49133-0.409441 4.99157-0.0361272 4.36536 0.144509 3.61272 0.144509 2.64933 0.144509 1.87861-0.15053 1.30058-0.746628 0.734585-1.33671 0.457611-2.17366 0.457611-3.25145 0.457611-4.35934 0.734585-5.21435 1.30058-5.82852 1.87861-6.43666 2.62523-6.74374 3.54047-6.74374 4.41956-6.74374 5.1421-6.43666 5.70808-5.82852 6.26807-5.23242 6.55106-4.38946 6.55106-3.29961 6.55106-3.23339 6.53902-3.13705 6.52698-3.01059L1.61369-3.01059C1.66184-2.28806 1.86657-1.7341 2.23988-1.34875 2.60718-0.963391 3.06479-0.770713 3.61272-0.770713 4.02818-0.770713 4.38343-0.873073 4.67245-1.08381 4.96146-1.3066 5.18425-1.6498 5.34682-2.11946ZM1.68593-3.92583 5.37091-3.92583C5.32273-4.4858 5.17824-4.90126 4.93737-5.17824 4.58214-5.61175 4.12452-5.82852 3.56455-5.82852 3.04672-5.82852 2.61319-5.64788 2.26397-5.29865 1.90872-4.96146 1.71604-4.50386 1.68593-3.92583Z" transform="matrix(1 0 0 1.00198 369.929 705.31)"/><path d="M0.818882 0 0.818882-6.59923 1.83044-6.59923 1.83044-5.58767C2.08333-6.0513 2.31817-6.35838 2.52889-6.50289 2.75169-6.65944 2.99254-6.74374 3.25145-6.74374 3.63681-6.74374 4.02217-6.62332 4.40752-6.38246L4.02217-5.34682C3.74519-5.50337 3.47424-5.58767 3.20327-5.58767 2.96244-5.58767 2.74566-5.51541 2.55299-5.37091 2.36031-5.22639 2.2158-5.01566 2.11946-4.74469 2.00506-4.35934 1.95086-3.92583 1.95086-3.44413L1.95086 0Z" transform="matrix(1 0 0 1.00198 377.003 705.31)"/><path d="M5.13005-0.818882C4.72664-0.463632 4.33526-0.216763 3.9499-0.0722543 3.56455 0.0722543 3.15511 0.144509 2.72157 0.144509 1.99904 0.144509 1.43305-0.0301059 1.03565-0.385356 0.650289-0.734585 0.457611-1.18617 0.457611-1.7341 0.457611-2.05323 0.529865-2.34827 0.674374-2.62523 0.818882-2.8962 1.01156-3.11296 1.25241-3.27553 1.49326-3.43208 1.76421-3.55251 2.07129-3.63681 2.27601-3.68496 2.60718-3.73916 3.05877-3.80539 3.95593-3.90173 4.62428-4.02818 5.0578-4.19075 5.0578-4.33526 5.0578-4.4316 5.0578-4.47977 5.0578-4.92533 4.94943-5.25048 4.74469-5.44316 4.45568-5.69605 4.02818-5.82852 3.46821-5.82852 2.93834-5.82852 2.54095-5.73218 2.28806-5.5395 2.0472-5.35886 1.86055-5.03371 1.7341-4.55202L0.650289-4.72062C0.746628-5.18425 0.90318-5.56359 1.13198-5.85261 1.37283-6.14163 1.69797-6.35838 2.11946-6.50289 2.55299-6.65944 3.05877-6.74374 3.63681-6.74374 4.19678-6.74374 4.64835-6.67148 4.98556-6.52698 5.33478-6.39451 5.5937-6.22591 5.75627-6.02119 5.93088-5.82852 6.0513-5.57563 6.11753-5.27457 6.1657-5.09393 6.18978-4.75675 6.18978-4.263L6.18978-2.76976C6.18978-1.72207 6.20183-1.06575 6.23797-0.794798 6.28612-0.517824 6.38246-0.252889 6.52698 0L5.37091 0C5.25651-0.222784 5.17824-0.493737 5.13005-0.818882ZM5.0578-3.29961C4.63632-3.13705 4.02818-2.99855 3.22736-2.89017 2.7577-2.82394 2.43255-2.74566 2.23988-2.64933 2.0472-2.56503 1.90271-2.44461 1.80637-2.28806 1.71003-2.14354 1.66184-1.96291 1.66184-1.75818 1.66184-1.46917 1.77024-1.21628 1.99904-1.01156 2.22183-0.818882 2.55299-0.722543 2.98651-0.722543 3.42004-0.722543 3.79336-0.818882 4.11851-1.01156 4.45568-1.20424 4.70255-1.45713 4.86513-1.78227 4.99157-2.03516 5.0578-2.40848 5.0578-2.89017Z" transform="matrix(1 0 0 1.00198 381.237 705.31)"/><path d="M3.27553-1.01156 3.44413-0.0240848C3.11898 0.0541907 2.842 0.0963391 2.60116 0.0963391 2.19773 0.0963391 1.88464 0.0301059 1.66184-0.0963391 1.43305-0.222784 1.27649-0.391377 1.18015-0.602119 1.08381-0.806841 1.03565-1.25241 1.03565-1.92678L1.03565-5.73218 0.216763-5.73218 0.216763-6.59923 1.03565-6.59923 1.03565-8.23699 2.14354-8.88728 2.14354-6.59923 3.27553-6.59923 3.27553-5.73218 2.14354-5.73218 2.14354-1.87861C2.14354-1.55346 2.15559-1.34875 2.19172-1.25241 2.23988-1.15607 2.3001-1.08381 2.3844-1.03565 2.48074-0.987476 2.61319-0.963391 2.79383-0.963391 2.90221-0.963391 3.06479-0.975433 3.27553-1.01156Z" transform="matrix(1 0 0 1.00198 388.309 705.31)"/><path d="M5.34682-2.11946 6.50289-1.97495C6.32225-1.30058 5.98506-0.776734 5.49133-0.409441 4.99157-0.0361272 4.36536 0.144509 3.61272 0.144509 2.64933 0.144509 1.87861-0.15053 1.30058-0.746628 0.734585-1.33671 0.457611-2.17366 0.457611-3.25145 0.457611-4.35934 0.734585-5.21435 1.30058-5.82852 1.87861-6.43666 2.62523-6.74374 3.54047-6.74374 4.41956-6.74374 5.1421-6.43666 5.70808-5.82852 6.26807-5.23242 6.55106-4.38946 6.55106-3.29961 6.55106-3.23339 6.53902-3.13705 6.52698-3.01059L1.61369-3.01059C1.66184-2.28806 1.86657-1.7341 2.23988-1.34875 2.60718-0.963391 3.06479-0.770713 3.61272-0.770713 4.02818-0.770713 4.38343-0.873073 4.67245-1.08381 4.96146-1.3066 5.18425-1.6498 5.34682-2.11946ZM1.68593-3.92583 5.37091-3.92583C5.32273-4.4858 5.17824-4.90126 4.93737-5.17824 4.58214-5.61175 4.12452-5.82852 3.56455-5.82852 3.04672-5.82852 2.61319-5.64788 2.26397-5.29865 1.90872-4.96146 1.71604-4.50386 1.68593-3.92583Z" transform="matrix(1 0 0 1.00198 391.842 705.31)"/><path d="M5.10597 0 5.10597-0.842967C4.68449-0.180637 4.07635 0.144509 3.27553 0.144509 2.74566 0.144509 2.25193 0 1.80637-0.289017 1.37283-0.578035 1.03565-0.975433 0.794798-1.49326 0.55395-2.02312 0.433526-2.62523 0.433526-3.29961 0.433526-3.95593 0.535886-4.55202 0.746628-5.0819 0.969412-5.61175 1.30058-6.02119 1.7341-6.31021 2.17967-6.59923 2.67943-6.74374 3.22736-6.74374 3.62476-6.74374 3.98001-6.65343 4.28709-6.4788 4.58815-6.31624 4.84103-6.09947 5.03371-5.82852L5.03371-9.10405 6.14163-9.10405 6.14163 0ZM1.5896-3.29961C1.5896-2.44461 1.76421-1.81238 2.11946-1.39692 2.46869-0.975433 2.89017-0.770713 3.37187-0.770713 3.8656-0.770713 4.28709-0.969412 4.62428-1.37283 4.96146-1.77024 5.13005-2.3844 5.13005-3.20327 5.13005-4.10044 4.94943-4.75675 4.6002-5.17824 4.263-5.61175 3.8355-5.82852 3.3237-5.82852 2.82394-5.82852 2.40848-5.61777 2.07129-5.20231 1.74614-4.79889 1.5896-4.16666 1.5896-3.29961Z" transform="matrix(1 0 0 1.00198 398.914 705.31)"/><path d="M0.939306 0 0.939306-9.10405 2.14354-9.10405 2.14354-4.6002 6.6474-9.10405 8.28516-9.10405 4.47977-5.41907 8.45376 0 6.86415 0 3.63681-4.6002 2.14354-3.15511 2.14354 0Z" transform="matrix(1 0 0 1.00198 409.521 705.31)"/><path d="M5.34682-2.11946 6.50289-1.97495C6.32225-1.30058 5.98506-0.776734 5.49133-0.409441 4.99157-0.0361272 4.36536 0.144509 3.61272 0.144509 2.64933 0.144509 1.87861-0.15053 1.30058-0.746628 0.734585-1.33671 0.457611-2.17366 0.457611-3.25145 0.457611-4.35934 0.734585-5.21435 1.30058-5.82852 1.87861-6.43666 2.62523-6.74374 3.54047-6.74374 4.41956-6.74374 5.1421-6.43666 5.70808-5.82852 6.26807-5.23242 6.55106-4.38946 6.55106-3.29961 6.55106-3.23339 6.53902-3.13705 6.52698-3.01059L1.61369-3.01059C1.66184-2.28806 1.86657-1.7341 2.23988-1.34875 2.60718-0.963391 3.06479-0.770713 3.61272-0.770713 4.02818-0.770713 4.38343-0.873073 4.67245-1.08381 4.96146-1.3066 5.18425-1.6498 5.34682-2.11946ZM1.68593-3.92583 5.37091-3.92583C5.32273-4.4858 5.17824-4.90126 4.93737-5.17824 4.58214-5.61175 4.12452-5.82852 3.56455-5.82852 3.04672-5.82852 2.61319-5.64788 2.26397-5.29865 1.90872-4.96146 1.71604-4.50386 1.68593-3.92583Z" transform="matrix(1 0 0 1.00198 418.003 705.31)"/><path d="M0.794798 2.52889 0.674374 1.49326C0.915222 1.55346 1.11994 1.5896 1.30058 1.5896 1.55346 1.5896 1.75818 1.54745 1.90271 1.46917 2.0472 1.38488 2.16763 1.26445 2.26397 1.1079 2.32418 0.993497 2.43858 0.722543 2.60116 0.289017 2.63126 0.222784 2.66136 0.132466 2.6975 0.0240848L0.216763-6.59923 1.421-6.59923 2.79383-2.76976C2.96845-2.28806 3.11898-1.78227 3.25145-1.25241 3.3779-1.76421 3.52842-2.26397 3.70906-2.74566L5.13005-6.59923 6.23797-6.59923 3.73315 0.120424C3.45617 0.842967 3.25145 1.33671 3.10693 1.61369 2.91425 1.98098 2.68546 2.2459 2.43255 2.40848 2.17366 2.58309 1.86657 2.67342 1.51734 2.67342 1.28854 2.67342 1.04769 2.62523 0.794798 2.52889Z" transform="matrix(1 0 0 1.00198 425.075 705.31)"/><path d="M0.385356-1.97495 1.49326-2.14354C1.55346-1.69196 1.72207-1.34875 1.99904-1.1079 2.28806-0.879094 2.68546-0.770713 3.20327-0.770713 3.71508-0.770713 4.09441-0.873073 4.33526-1.08381 4.58815-1.28854 4.72062-1.54143 4.72062-1.83044 4.72062-2.07129 4.60621-2.26397 4.38343-2.40848 4.23892-2.50482 3.85959-2.63126 3.25145-2.79383 2.43255-2.99855 1.86055-3.17919 1.54143-3.3237 1.21628-3.48025 0.975433-3.69099 0.818882-3.9499 0.65631-4.22086 0.578035-4.5159 0.578035-4.84103 0.578035-5.13005 0.638246-5.40102 0.770713-5.65993 0.915222-5.91282 1.09586-6.12356 1.32466-6.28612 1.49928-6.41258 1.7341-6.51493 2.02312-6.59923 2.32418-6.69557 2.65535-6.74374 3.01059-6.74374 3.5224-6.74374 3.97398-6.65944 4.35934-6.50289 4.75675-6.35838 5.04576-6.15366 5.22639-5.90076 5.41907-5.65993 5.54553-5.32273 5.61175-4.88922L4.52794-4.74469C4.47977-5.0819 4.33526-5.34682 4.09441-5.5395 3.85356-5.73218 3.51638-5.82852 3.08285-5.82852 2.56503-5.82852 2.19773-5.7382 1.97495-5.56359 1.76421-5.40102 1.66184-5.20834 1.66184-4.98556 1.66184-4.82298 1.71003-4.68449 1.80637-4.57611 1.88464-4.4617 2.02312-4.36536 2.2158-4.28709 2.32418-4.23892 2.65535-4.14258 3.20327-3.99807 4.0041-3.78733 4.55804-3.61272 4.86513-3.46821 5.16618-3.33574 5.40703-3.14306 5.58767-2.89017 5.78035-2.63126 5.87669-2.31214 5.87669-1.92678 5.87669-1.55346 5.76228-1.20424 5.5395-0.867052 5.32876-0.541907 5.01566-0.295038 4.6002-0.120424 4.19678 0.0541907 3.73315 0.144509 3.20327 0.144509 2.34827 0.144509 1.69797-0.0301059 1.25241-0.385356 0.800819-0.734585 0.511801-1.26445 0.385356-1.97495Z" transform="matrix(1 0 0 1.00198 431.434 705.31)"/><path d="M3.27553-1.01156 3.44413-0.0240848C3.11898 0.0541907 2.842 0.0963391 2.60116 0.0963391 2.19773 0.0963391 1.88464 0.0301059 1.66184-0.0963391 1.43305-0.222784 1.27649-0.391377 1.18015-0.602119 1.08381-0.806841 1.03565-1.25241 1.03565-1.92678L1.03565-5.73218 0.216763-5.73218 0.216763-6.59923 1.03565-6.59923 1.03565-8.23699 2.14354-8.88728 2.14354-6.59923 3.27553-6.59923 3.27553-5.73218 2.14354-5.73218 2.14354-1.87861C2.14354-1.55346 2.15559-1.34875 2.19172-1.25241 2.23988-1.15607 2.3001-1.08381 2.3844-1.03565 2.48074-0.987476 2.61319-0.963391 2.79383-0.963391 2.90221-0.963391 3.06479-0.975433 3.27553-1.01156Z" transform="matrix(1 0 0 1.00198 437.792 705.31)"/><path d="M0.818882 0 0.818882-6.59923 1.83044-6.59923 1.83044-5.58767C2.08333-6.0513 2.31817-6.35838 2.52889-6.50289 2.75169-6.65944 2.99254-6.74374 3.25145-6.74374 3.63681-6.74374 4.02217-6.62332 4.40752-6.38246L4.02217-5.34682C3.74519-5.50337 3.47424-5.58767 3.20327-5.58767 2.96244-5.58767 2.74566-5.51541 2.55299-5.37091 2.36031-5.22639 2.2158-5.01566 2.11946-4.74469 2.00506-4.35934 1.95086-3.92583 1.95086-3.44413L1.95086 0Z" transform="matrix(1 0 0 1.00198 441.325 705.31)"/><path d="M5.34682-2.11946 6.50289-1.97495C6.32225-1.30058 5.98506-0.776734 5.49133-0.409441 4.99157-0.0361272 4.36536 0.144509 3.61272 0.144509 2.64933 0.144509 1.87861-0.15053 1.30058-0.746628 0.734585-1.33671 0.457611-2.17366 0.457611-3.25145 0.457611-4.35934 0.734585-5.21435 1.30058-5.82852 1.87861-6.43666 2.62523-6.74374 3.54047-6.74374 4.41956-6.74374 5.1421-6.43666 5.70808-5.82852 6.26807-5.23242 6.55106-4.38946 6.55106-3.29961 6.55106-3.23339 6.53902-3.13705 6.52698-3.01059L1.61369-3.01059C1.66184-2.28806 1.86657-1.7341 2.23988-1.34875 2.60718-0.963391 3.06479-0.770713 3.61272-0.770713 4.02818-0.770713 4.38343-0.873073 4.67245-1.08381 4.96146-1.3066 5.18425-1.6498 5.34682-2.11946ZM1.68593-3.92583 5.37091-3.92583C5.32273-4.4858 5.17824-4.90126 4.93737-5.17824 4.58214-5.61175 4.12452-5.82852 3.56455-5.82852 3.04672-5.82852 2.61319-5.64788 2.26397-5.29865 1.90872-4.96146 1.71604-4.50386 1.68593-3.92583Z" transform="matrix(1 0 0 1.00198 445.559 705.31)"/><path d="M5.13005-0.818882C4.72664-0.463632 4.33526-0.216763 3.9499-0.0722543 3.56455 0.0722543 3.15511 0.144509 2.72157 0.144509 1.99904 0.144509 1.43305-0.0301059 1.03565-0.385356 0.650289-0.734585 0.457611-1.18617 0.457611-1.7341 0.457611-2.05323 0.529865-2.34827 0.674374-2.62523 0.818882-2.8962 1.01156-3.11296 1.25241-3.27553 1.49326-3.43208 1.76421-3.55251 2.07129-3.63681 2.27601-3.68496 2.60718-3.73916 3.05877-3.80539 3.95593-3.90173 4.62428-4.02818 5.0578-4.19075 5.0578-4.33526 5.0578-4.4316 5.0578-4.47977 5.0578-4.92533 4.94943-5.25048 4.74469-5.44316 4.45568-5.69605 4.02818-5.82852 3.46821-5.82852 2.93834-5.82852 2.54095-5.73218 2.28806-5.5395 2.0472-5.35886 1.86055-5.03371 1.7341-4.55202L0.650289-4.72062C0.746628-5.18425 0.90318-5.56359 1.13198-5.85261 1.37283-6.14163 1.69797-6.35838 2.11946-6.50289 2.55299-6.65944 3.05877-6.74374 3.63681-6.74374 4.19678-6.74374 4.64835-6.67148 4.98556-6.52698 5.33478-6.39451 5.5937-6.22591 5.75627-6.02119 5.93088-5.82852 6.0513-5.57563 6.11753-5.27457 6.1657-5.09393 6.18978-4.75675 6.18978-4.263L6.18978-2.76976C6.18978-1.72207 6.20183-1.06575 6.23797-0.794798 6.28612-0.517824 6.38246-0.252889 6.52698 0L5.37091 0C5.25651-0.222784 5.17824-0.493737 5.13005-0.818882ZM5.0578-3.29961C4.63632-3.13705 4.02818-2.99855 3.22736-2.89017 2.7577-2.82394 2.43255-2.74566 2.23988-2.64933 2.0472-2.56503 1.90271-2.44461 1.80637-2.28806 1.71003-2.14354 1.66184-1.96291 1.66184-1.75818 1.66184-1.46917 1.77024-1.21628 1.99904-1.01156 2.22183-0.818882 2.55299-0.722543 2.98651-0.722543 3.42004-0.722543 3.79336-0.818882 4.11851-1.01156 4.45568-1.20424 4.70255-1.45713 4.86513-1.78227 4.99157-2.03516 5.0578-2.40848 5.0578-2.89017Z" transform="matrix(1 0 0 1.00198 452.631 705.31)"/><path d="M0.842967 0 0.842967-6.59923 1.83044-6.59923 1.83044-5.65993C2.03516-5.97905 2.31214-6.23797 2.64933-6.43064 2.99855-6.63536 3.39595-6.74374 3.82949-6.74374 4.32322-6.74374 4.72664-6.63536 5.03371-6.43064 5.35285-6.23797 5.57563-5.95496 5.70808-5.58767 6.2199-6.35838 6.89427-6.74374 7.73121-6.74374 8.38753-6.74374 8.8933-6.55709 9.24856-6.18978 9.59778-5.83454 9.77842-5.28059 9.77842-4.52794L9.77842 0 8.67052 0 8.67052-4.14258C8.67052-4.58815 8.62838-4.91329 8.5501-5.10597 8.48387-5.31069 8.35743-5.47326 8.16475-5.58767 7.97207-5.71411 7.74326-5.78035 7.49037-5.78035 7.02072-5.78035 6.63536-5.61777 6.3343-5.29865 6.02722-4.99157 5.87669-4.50386 5.87669-3.82949L5.87669 0 4.74469 0 4.74469-4.28709C4.74469-4.78082 4.65438-5.15414 4.47977-5.39499 4.29913-5.64788 4.0041-5.78035 3.58862-5.78035 3.26349-5.78035 2.96845-5.69003 2.6975-5.51541 2.43858-5.35285 2.2459-5.112 2.11946-4.79288 2.00506-4.46773 1.95086-4.01011 1.95086-3.42004L1.95086 0Z" transform="matrix(1 0 0 1.00198 459.705 705.31)"/></g></svg>