<svg width="3576" height="1183" xmlns="http://www.w3.org/2000/svg" xmlns:xlink="http://www.w3.org/1999/xlink" overflow="hidden"><defs><clipPath id="clip0"><rect x="332" y="609" width="3576" height="1183"/></clipPath><clipPath id="clip1"><rect x="332" y="937" width="3577" height="743"/></clipPath><clipPath id="clip2"><rect x="332" y="937" width="3577" height="743"/></clipPath><clipPath id="clip3"><rect x="332" y="937" width="3577" height="743"/></clipPath><clipPath id="clip4"><rect x="332.988" y="937" width="3573.39" height="741.201"/></clipPath><clipPath id="clip5"><rect x="1417.77" y="1383.82" width="319.052" height="288.427"/></clipPath></defs><g clip-path="url(#clip0)" transform="translate(-332 -609)"><g clip-path="url(#clip1)"><g clip-path="url(#clip2)"><g clip-path="url(#clip3)"><g clip-path="url(#clip4)"><path d="M0 0 3573.39 0 3573.39 740.955 0 740.955Z" fill="#FFFFFF" transform="matrix(1 0 0 1.00033 332.988 937)"/></g><path d="M346.568 5.98557 944.137 5.98557 944.137 304.754 346.568 304.754Z" stroke="#000000" stroke-width="5.97556" fill="#FFFFFF" transform="matrix(1 0 0 1.00033 335.976 939.989)"/><path d="M5.35908 0 5.35908-51.3475 15.5787-51.3475 27.6678-14.9556C28.8206-11.5283 29.6619-9.0045 30.1604-7.35316 30.7212-9.25376 31.656-11.9956 32.9023-15.5787L45.116-51.3475 54.214-51.3475 54.214 0 47.7332 0 47.7332-42.8727 32.7776 0 26.6708 0 11.8398-43.6204 11.8398 0Z" transform="matrix(1 0 0 1.00033 777.14 1074.48)"/><path d="M30.1604-11.9645 36.6412-11.2167C35.6441-7.38432 33.7124-4.3932 30.9082-2.24334 28.1663-0.155787 24.6144 0.872409 20.3147 0.872409 14.8933 0.872409 10.5935-0.778936 7.35316-4.11278 4.1751-7.50894 2.61723-12.2449 2.61723-18.3206 2.61723-24.5521 4.23741-29.3503 7.47779-32.7776 10.7182-36.2673 14.8621-38.0121 19.9408-38.0121 24.926-38.0121 28.9764-36.2984 32.1545-32.9023 35.3014-29.4749 36.8904-24.739 36.8904-18.6945 36.8904-18.2583 36.8904-17.6974 36.8904-16.9497L9.09798-16.9497C9.34724-12.868 10.5001-9.75228 12.5876-7.60242 14.644-5.4214 17.2301-4.36204 20.3147-4.36204 22.6203-4.36204 24.6144-4.92288 26.2969-6.10686 27.9482-7.35316 29.2257-9.28492 30.1604-11.9645ZM9.47187-22.1841 30.285-22.1841C29.9423-25.2375 29.1011-27.5743 27.7924-29.1634 25.7984-31.5625 23.2123-32.7776 20.0654-32.7776 17.1366-32.7776 14.7063-31.8118 12.7122-29.9112 10.7805-27.9794 9.72113-25.4245 9.47187-22.1841Z" transform="matrix(1 0 0 1.00033 836.873 1074.48)"/><path d="M4.73593 0 4.73593-37.1397 10.3443-37.1397 10.3443-31.9052C11.4971-33.7124 13.0238-35.1768 14.9556-36.2673 16.9497-37.4201 19.193-38.0121 21.6856-38.0121 24.4274-38.0121 26.6708-37.4201 28.4156-36.2673 30.1604-35.0833 31.4067-33.5254 32.1545-31.5313 35.0521-35.8311 38.8845-38.0121 43.6204-38.0121 47.2659-38.0121 50.1012-36.9527 52.0953-34.8964 54.0893-32.9023 55.0864-29.7865 55.0864-25.5491L55.0864 0 48.8549 0 48.8549-23.4304C48.8549-25.923 48.6368-27.699 48.2317-28.7895 47.7955-29.9423 47.0478-30.8459 45.9884-31.5313 44.8979-32.1856 43.6516-32.5284 42.2495-32.5284 39.57-32.5284 37.3889-31.656 35.6441-29.9112 33.9616-28.1663 33.1515-25.3622 33.1515-21.561L33.1515 0 26.7954 0 26.7954-24.1782C26.7954-26.92 26.2346-28.9764 25.1752-30.4097 24.1782-31.8118 22.4957-32.5284 20.19-32.5284 18.4452-32.5284 16.825-32.061 15.3295-31.1575 13.8339-30.2227 12.7122-28.8518 11.9645-27.0447 11.279-25.2064 10.9674-22.6203 10.9674-19.3176L10.9674 0Z" transform="matrix(1 0 0 1.00033 876.752 1074.48)"/><path d="M2.36797-18.5698C2.36797-25.4556 4.26857-30.5655 8.10094-33.8993 11.3413-36.6412 15.236-38.0121 19.8161-38.0121 24.8637-38.0121 29.0387-36.2984 32.2791-32.9023 35.5195-29.5684 37.1397-24.9571 37.1397-19.0684 37.1397-14.3324 36.4231-10.5935 35.021-7.85168 33.5877-5.10982 31.5313-2.9288 28.7895-1.37093 26.0476 0.12463 23.0565 0.872409 19.8161 0.872409 14.5817 0.872409 10.3443-0.778936 7.1039-4.11278 3.92584-7.50894 2.36797-12.3384 2.36797-18.5698ZM8.84872-18.5698C8.84872-13.8339 9.87691-10.2508 11.9645-7.85168 14.0209-5.51487 16.6381-4.36204 19.8161-4.36204 22.963-4.36204 25.5803-5.51487 27.6678-7.85168 29.7242-10.2508 30.7836-13.8962 30.7836-18.8191 30.7836-23.3681 29.6931-26.8266 27.5432-29.1634 25.4556-31.5625 22.8696-32.7776 19.8161-32.7776 16.6381-32.7776 14.0209-31.5625 11.9645-29.1634 9.87691-26.8266 8.84872-23.3058 8.84872-18.5698Z" transform="matrix(1 0 0 1.00033 936.485 1074.48)"/><path d="M4.6113 0 4.6113-37.1397 10.3443-37.1397 10.3443-31.5313C11.7464-34.1797 13.0861-35.9245 14.3324-36.7658 15.5787-37.5759 16.8873-38.0121 18.3206-38.0121 20.4704-38.0121 22.6203-37.3266 24.8013-36.018L22.6826-30.1604C21.0936-31.064 19.5669-31.5313 18.0713-31.5313 16.6381-31.5313 15.3918-31.0951 14.3324-30.285 13.2419-29.4438 12.463-28.291 11.9645-26.7954 11.279-24.5521 10.9674-22.0906 10.9674-19.4423L10.9674 0Z" transform="matrix(1 0 0 1.00033 976.365 1074.48)"/><path d="M4.48667 14.3324 3.73889 8.3502C5.14098 8.75524 6.35612 8.97335 7.35316 8.97335 8.75524 8.97335 9.87691 8.72409 10.7182 8.22557 11.5283 7.78936 12.2137 7.16622 12.7122 6.35612 13.1173 5.67066 13.7716 4.11278 14.7063 1.62019 14.7686 1.27745 14.9556 0.778936 15.2048 0.12463L1.12167-37.1397 7.97631-37.1397 15.7034-15.7034C16.7004-12.9615 17.5728-10.0327 18.3206-6.97927 19.0684-9.87691 19.9408-12.7122 20.9378-15.4541L28.9141-37.1397 35.1456-37.1397 21.0624 0.623149C19.5669 4.67362 18.3829 7.50894 17.5728 9.09798 16.3888 11.1544 15.0802 12.6499 13.5847 13.5847 12.1514 14.5817 10.4689 15.0802 8.47483 15.0802 7.29084 15.0802 5.98223 14.8309 4.48667 14.3324Z" transform="matrix(1 0 0 1.00033 1000.24 1074.48)"/><path d="M42.1249-17.9467 48.9795-16.3265C47.484-10.6559 44.8667-6.38728 41.1278-3.48963 37.4513-0.560834 32.9646 0.872409 27.6678 0.872409 22.1841 0.872409 17.6974-0.24926 14.2078-2.4926 10.7182-4.73593 8.03862-7.97631 6.23149-12.2137 4.48667-16.5134 3.61426-21.1248 3.61426-26.0476 3.61426-31.3444 4.6113-36.018 6.60538-40.0062 8.66178-43.9943 11.5906-47.0166 15.3295-49.1041 19.0684-51.1605 23.2123-52.2199 27.7924-52.2199 32.9334-52.2199 37.2643-50.8801 40.754-48.2317 44.2436-45.6457 46.6427-42.0002 47.9825-37.2643L41.3771-35.6441C40.1931-39.383 38.4483-42.0626 36.1426-43.7451 33.8993-45.4899 31.064-46.3623 27.6678-46.3623 23.6797-46.3623 20.3458-45.3964 17.6974-43.4958 15.1114-41.6575 13.2731-39.1338 12.2137-35.8934 11.1232-32.7153 10.5935-29.4438 10.5935-26.0476 10.5935-21.7167 11.2167-17.8844 12.463-14.5817 13.7093-11.3413 15.641-8.91104 18.3206-7.35316 21.0624-5.76413 23.9912-4.98519 27.1693-4.98519 30.9082-4.98519 34.0863-6.04454 36.7658-8.22557 39.4142-10.3754 41.1902-13.6158 42.1249-17.9467Z" transform="matrix(1 0 0 1.00033 1056.02 1074.48)"/><path d="M30.1604-11.9645 36.6412-11.2167C35.6441-7.38432 33.7124-4.3932 30.9082-2.24334 28.1663-0.155787 24.6144 0.872409 20.3147 0.872409 14.8933 0.872409 10.5935-0.778936 7.35316-4.11278 4.1751-7.50894 2.61723-12.2449 2.61723-18.3206 2.61723-24.5521 4.23741-29.3503 7.47779-32.7776 10.7182-36.2673 14.8621-38.0121 19.9408-38.0121 24.926-38.0121 28.9764-36.2984 32.1545-32.9023 35.3014-29.4749 36.8904-24.739 36.8904-18.6945 36.8904-18.2583 36.8904-17.6974 36.8904-16.9497L9.09798-16.9497C9.34724-12.868 10.5001-9.75228 12.5876-7.60242 14.644-5.4214 17.2301-4.36204 20.3147-4.36204 22.6203-4.36204 24.6144-4.92288 26.2969-6.10686 27.9482-7.35316 29.2257-9.28492 30.1604-11.9645ZM9.47187-22.1841 30.285-22.1841C29.9423-25.2375 29.1011-27.5743 27.7924-29.1634 25.7984-31.5625 23.2123-32.7776 20.0654-32.7776 17.1366-32.7776 14.7063-31.8118 12.7122-29.9112 10.7805-27.9794 9.72113-25.4245 9.47187-22.1841Z" transform="matrix(1 0 0 1.00033 1107.8 1074.48)"/><path d="M4.6113 0 4.6113-51.3475 10.8428-51.3475 10.8428 0Z" transform="matrix(1 0 0 1.00033 1147.68 1074.48)"/><path d="M4.6113 0 4.6113-51.3475 10.8428-51.3475 10.8428 0Z" transform="matrix(1 0 0 1.00033 1163.61 1074.48)"/><path d="M19.6915-51.4721C24.6767-51.4721 28.5402-49.7273 31.2821-46.2377 34.5848-42.0002 36.2673-35.021 36.2673-25.2999 36.2673-15.5787 34.5848-8.59946 31.2821-4.36204 28.5402-0.872409 24.6767 0.872409 19.6915 0.872409 14.7063 0.872409 10.6559-1.02819 7.60242-4.86056 4.51783-8.66178 2.99112-15.5164 2.99112-25.4245 2.99112-35.0521 4.67362-42.0002 8.10094-46.2377 10.8428-49.7273 14.7063-51.4721 19.6915-51.4721ZM19.6915-43.3712C18.4452-43.3712 17.3547-42.9973 16.4511-42.2495 15.5164-41.5017 14.8309-40.1308 14.3324-38.1367 13.647-35.5507 13.3354-31.2821 13.3354-25.2999 13.3354-19.3176 13.6158-15.1425 14.2078-12.8369 14.7686-10.5935 15.5164-9.09798 16.4511-8.3502 17.3547-7.60242 18.4452-7.22853 19.6915-7.22853 20.8443-7.22853 21.8725-7.60242 22.8073-8.3502 23.8043-9.1603 24.5521-10.5312 25.0506-12.463 25.7049-15.0179 26.0476-19.3176 26.0476-25.2999 26.0476-31.2821 25.7049-35.3949 25.0506-37.6382 24.4586-39.9439 23.7108-41.5017 22.8073-42.2495 21.8725-42.9973 20.8443-43.3712 19.6915-43.3712Z" transform="matrix(1 0 0 1.00033 958.368 1164.15)"/><path d="M944.137 5.98557 1541.71 5.98557 1541.71 304.754 944.137 304.754Z" stroke="#000000" stroke-width="5.97556" fill="#FFFFFF" transform="matrix(1 0 0 1.00033 335.976 939.989)"/><path d="M5.35908 0 5.35908-51.3475 15.5787-51.3475 27.6678-14.9556C28.8206-11.5283 29.6619-9.0045 30.1604-7.35316 30.7212-9.25376 31.656-11.9956 32.9023-15.5787L45.116-51.3475 54.214-51.3475 54.214 0 47.7332 0 47.7332-42.8727 32.7776 0 26.6708 0 11.8398-43.6204 11.8398 0Z" transform="matrix(1 0 0 1.00033 1374.7 1074.48)"/><path d="M30.1604-11.9645 36.6412-11.2167C35.6441-7.38432 33.7124-4.3932 30.9082-2.24334 28.1663-0.155787 24.6144 0.872409 20.3147 0.872409 14.8933 0.872409 10.5935-0.778936 7.35316-4.11278 4.1751-7.50894 2.61723-12.2449 2.61723-18.3206 2.61723-24.5521 4.23741-29.3503 7.47779-32.7776 10.7182-36.2673 14.8621-38.0121 19.9408-38.0121 24.926-38.0121 28.9764-36.2984 32.1545-32.9023 35.3014-29.4749 36.8904-24.739 36.8904-18.6945 36.8904-18.2583 36.8904-17.6974 36.8904-16.9497L9.09798-16.9497C9.34724-12.868 10.5001-9.75228 12.5876-7.60242 14.644-5.4214 17.2301-4.36204 20.3147-4.36204 22.6203-4.36204 24.6144-4.92288 26.2969-6.10686 27.9482-7.35316 29.2257-9.28492 30.1604-11.9645ZM9.47187-22.1841 30.285-22.1841C29.9423-25.2375 29.1011-27.5743 27.7924-29.1634 25.7984-31.5625 23.2123-32.7776 20.0654-32.7776 17.1366-32.7776 14.7063-31.8118 12.7122-29.9112 10.7805-27.9794 9.72113-25.4245 9.47187-22.1841Z" transform="matrix(1 0 0 1.00033 1434.43 1074.48)"/><path d="M4.73593 0 4.73593-37.1397 10.3443-37.1397 10.3443-31.9052C11.4971-33.7124 13.0238-35.1768 14.9556-36.2673 16.9497-37.4201 19.193-38.0121 21.6856-38.0121 24.4274-38.0121 26.6708-37.4201 28.4156-36.2673 30.1604-35.0833 31.4067-33.5254 32.1545-31.5313 35.0521-35.8311 38.8845-38.0121 43.6204-38.0121 47.2659-38.0121 50.1012-36.9527 52.0953-34.8964 54.0893-32.9023 55.0864-29.7865 55.0864-25.5491L55.0864 0 48.8549 0 48.8549-23.4304C48.8549-25.923 48.6368-27.699 48.2317-28.7895 47.7955-29.9423 47.0478-30.8459 45.9884-31.5313 44.8979-32.1856 43.6516-32.5284 42.2495-32.5284 39.57-32.5284 37.3889-31.656 35.6441-29.9112 33.9616-28.1663 33.1515-25.3622 33.1515-21.561L33.1515 0 26.7954 0 26.7954-24.1782C26.7954-26.92 26.2346-28.9764 25.1752-30.4097 24.1782-31.8118 22.4957-32.5284 20.19-32.5284 18.4452-32.5284 16.825-32.061 15.3295-31.1575 13.8339-30.2227 12.7122-28.8518 11.9645-27.0447 11.279-25.2064 10.9674-22.6203 10.9674-19.3176L10.9674 0Z" transform="matrix(1 0 0 1.00033 1474.31 1074.48)"/><path d="M2.36797-18.5698C2.36797-25.4556 4.26857-30.5655 8.10094-33.8993 11.3413-36.6412 15.236-38.0121 19.8161-38.0121 24.8637-38.0121 29.0387-36.2984 32.2791-32.9023 35.5195-29.5684 37.1397-24.9571 37.1397-19.0684 37.1397-14.3324 36.4231-10.5935 35.021-7.85168 33.5877-5.10982 31.5313-2.9288 28.7895-1.37093 26.0476 0.12463 23.0565 0.872409 19.8161 0.872409 14.5817 0.872409 10.3443-0.778936 7.1039-4.11278 3.92584-7.50894 2.36797-12.3384 2.36797-18.5698ZM8.84872-18.5698C8.84872-13.8339 9.87691-10.2508 11.9645-7.85168 14.0209-5.51487 16.6381-4.36204 19.8161-4.36204 22.963-4.36204 25.5803-5.51487 27.6678-7.85168 29.7242-10.2508 30.7836-13.8962 30.7836-18.8191 30.7836-23.3681 29.6931-26.8266 27.5432-29.1634 25.4556-31.5625 22.8696-32.7776 19.8161-32.7776 16.6381-32.7776 14.0209-31.5625 11.9645-29.1634 9.87691-26.8266 8.84872-23.3058 8.84872-18.5698Z" transform="matrix(1 0 0 1.00033 1534.04 1074.48)"/><path d="M4.6113 0 4.6113-37.1397 10.3443-37.1397 10.3443-31.5313C11.7464-34.1797 13.0861-35.9245 14.3324-36.7658 15.5787-37.5759 16.8873-38.0121 18.3206-38.0121 20.4704-38.0121 22.6203-37.3266 24.8013-36.018L22.6826-30.1604C21.0936-31.064 19.5669-31.5313 18.0713-31.5313 16.6381-31.5313 15.3918-31.0951 14.3324-30.285 13.2419-29.4438 12.463-28.291 11.9645-26.7954 11.279-24.5521 10.9674-22.0906 10.9674-19.4423L10.9674 0Z" transform="matrix(1 0 0 1.00033 1573.92 1074.48)"/><path d="M4.48667 14.3324 3.73889 8.3502C5.14098 8.75524 6.35612 8.97335 7.35316 8.97335 8.75524 8.97335 9.87691 8.72409 10.7182 8.22557 11.5283 7.78936 12.2137 7.16622 12.7122 6.35612 13.1173 5.67066 13.7716 4.11278 14.7063 1.62019 14.7686 1.27745 14.9556 0.778936 15.2048 0.12463L1.12167-37.1397 7.97631-37.1397 15.7034-15.7034C16.7004-12.9615 17.5728-10.0327 18.3206-6.97927 19.0684-9.87691 19.9408-12.7122 20.9378-15.4541L28.9141-37.1397 35.1456-37.1397 21.0624 0.623149C19.5669 4.67362 18.3829 7.50894 17.5728 9.09798 16.3888 11.1544 15.0802 12.6499 13.5847 13.5847 12.1514 14.5817 10.4689 15.0802 8.47483 15.0802 7.29084 15.0802 5.98223 14.8309 4.48667 14.3324Z" transform="matrix(1 0 0 1.00033 1597.8 1074.48)"/><path d="M42.1249-17.9467 48.9795-16.3265C47.484-10.6559 44.8667-6.38728 41.1278-3.48963 37.4513-0.560834 32.9646 0.872409 27.6678 0.872409 22.1841 0.872409 17.6974-0.24926 14.2078-2.4926 10.7182-4.73593 8.03862-7.97631 6.23149-12.2137 4.48667-16.5134 3.61426-21.1248 3.61426-26.0476 3.61426-31.3444 4.6113-36.018 6.60538-40.0062 8.66178-43.9943 11.5906-47.0166 15.3295-49.1041 19.0684-51.1605 23.2123-52.2199 27.7924-52.2199 32.9334-52.2199 37.2643-50.8801 40.754-48.2317 44.2436-45.6457 46.6427-42.0002 47.9825-37.2643L41.3771-35.6441C40.1931-39.383 38.4483-42.0626 36.1426-43.7451 33.8993-45.4899 31.064-46.3623 27.6678-46.3623 23.6797-46.3623 20.3458-45.3964 17.6974-43.4958 15.1114-41.6575 13.2731-39.1338 12.2137-35.8934 11.1232-32.7153 10.5935-29.4438 10.5935-26.0476 10.5935-21.7167 11.2167-17.8844 12.463-14.5817 13.7093-11.3413 15.641-8.91104 18.3206-7.35316 21.0624-5.76413 23.9912-4.98519 27.1693-4.98519 30.9082-4.98519 34.0863-6.04454 36.7658-8.22557 39.4142-10.3754 41.1902-13.6158 42.1249-17.9467Z" transform="matrix(1 0 0 1.00033 1653.58 1074.48)"/><path d="M30.1604-11.9645 36.6412-11.2167C35.6441-7.38432 33.7124-4.3932 30.9082-2.24334 28.1663-0.155787 24.6144 0.872409 20.3147 0.872409 14.8933 0.872409 10.5935-0.778936 7.35316-4.11278 4.1751-7.50894 2.61723-12.2449 2.61723-18.3206 2.61723-24.5521 4.23741-29.3503 7.47779-32.7776 10.7182-36.2673 14.8621-38.0121 19.9408-38.0121 24.926-38.0121 28.9764-36.2984 32.1545-32.9023 35.3014-29.4749 36.8904-24.739 36.8904-18.6945 36.8904-18.2583 36.8904-17.6974 36.8904-16.9497L9.09798-16.9497C9.34724-12.868 10.5001-9.75228 12.5876-7.60242 14.644-5.4214 17.2301-4.36204 20.3147-4.36204 22.6203-4.36204 24.6144-4.92288 26.2969-6.10686 27.9482-7.35316 29.2257-9.28492 30.1604-11.9645ZM9.47187-22.1841 30.285-22.1841C29.9423-25.2375 29.1011-27.5743 27.7924-29.1634 25.7984-31.5625 23.2123-32.7776 20.0654-32.7776 17.1366-32.7776 14.7063-31.8118 12.7122-29.9112 10.7805-27.9794 9.72113-25.4245 9.47187-22.1841Z" transform="matrix(1 0 0 1.00033 1705.36 1074.48)"/><path d="M4.6113 0 4.6113-51.3475 10.8428-51.3475 10.8428 0Z" transform="matrix(1 0 0 1.00033 1745.24 1074.48)"/><path d="M4.6113 0 4.6113-51.3475 10.8428-51.3475 10.8428 0Z" transform="matrix(1 0 0 1.00033 1761.17 1074.48)"/><path d="M28.1663 0 18.3206 0 18.3206-37.0151C14.7375-33.6812 10.5001-31.2198 5.60834-29.6619L5.60834-38.5106C8.16326-39.3207 10.9674-40.9097 13.9585-43.2465 17.012-45.6457 19.0995-48.3875 20.19-51.4721L28.1663-51.4721Z" transform="matrix(1 0 0 1.00033 1555.92 1164.15)"/><path d="M1541.71 5.98557 2139.24 5.98557 2139.24 304.754 1541.71 304.754Z" stroke="#000000" stroke-width="5.97556" fill="#FFFFFF" transform="matrix(1 0 0 1.00033 335.976 939.989)"/><path d="M5.35908 0 5.35908-51.3475 15.5787-51.3475 27.6678-14.9556C28.8206-11.5283 29.6619-9.0045 30.1604-7.35316 30.7212-9.25376 31.656-11.9956 32.9023-15.5787L45.116-51.3475 54.214-51.3475 54.214 0 47.7332 0 47.7332-42.8727 32.7776 0 26.6708 0 11.8398-43.6204 11.8398 0Z" transform="matrix(1 0 0 1.00033 1972.25 1074.48)"/><path d="M30.1604-11.9645 36.6412-11.2167C35.6441-7.38432 33.7124-4.3932 30.9082-2.24334 28.1663-0.155787 24.6144 0.872409 20.3147 0.872409 14.8933 0.872409 10.5935-0.778936 7.35316-4.11278 4.1751-7.50894 2.61723-12.2449 2.61723-18.3206 2.61723-24.5521 4.23741-29.3503 7.47779-32.7776 10.7182-36.2673 14.8621-38.0121 19.9408-38.0121 24.926-38.0121 28.9764-36.2984 32.1545-32.9023 35.3014-29.4749 36.8904-24.739 36.8904-18.6945 36.8904-18.2583 36.8904-17.6974 36.8904-16.9497L9.09798-16.9497C9.34724-12.868 10.5001-9.75228 12.5876-7.60242 14.644-5.4214 17.2301-4.36204 20.3147-4.36204 22.6203-4.36204 24.6144-4.92288 26.2969-6.10686 27.9482-7.35316 29.2257-9.28492 30.1604-11.9645ZM9.47187-22.1841 30.285-22.1841C29.9423-25.2375 29.1011-27.5743 27.7924-29.1634 25.7984-31.5625 23.2123-32.7776 20.0654-32.7776 17.1366-32.7776 14.7063-31.8118 12.7122-29.9112 10.7805-27.9794 9.72113-25.4245 9.47187-22.1841Z" transform="matrix(1 0 0 1.00033 2031.98 1074.48)"/><path d="M4.73593 0 4.73593-37.1397 10.3443-37.1397 10.3443-31.9052C11.4971-33.7124 13.0238-35.1768 14.9556-36.2673 16.9497-37.4201 19.193-38.0121 21.6856-38.0121 24.4274-38.0121 26.6708-37.4201 28.4156-36.2673 30.1604-35.0833 31.4067-33.5254 32.1545-31.5313 35.0521-35.8311 38.8845-38.0121 43.6204-38.0121 47.2659-38.0121 50.1012-36.9527 52.0953-34.8964 54.0893-32.9023 55.0864-29.7865 55.0864-25.5491L55.0864 0 48.8549 0 48.8549-23.4304C48.8549-25.923 48.6368-27.699 48.2317-28.7895 47.7955-29.9423 47.0478-30.8459 45.9884-31.5313 44.8979-32.1856 43.6516-32.5284 42.2495-32.5284 39.57-32.5284 37.3889-31.656 35.6441-29.9112 33.9616-28.1663 33.1515-25.3622 33.1515-21.561L33.1515 0 26.7954 0 26.7954-24.1782C26.7954-26.92 26.2346-28.9764 25.1752-30.4097 24.1782-31.8118 22.4957-32.5284 20.19-32.5284 18.4452-32.5284 16.825-32.061 15.3295-31.1575 13.8339-30.2227 12.7122-28.8518 11.9645-27.0447 11.279-25.2064 10.9674-22.6203 10.9674-19.3176L10.9674 0Z" transform="matrix(1 0 0 1.00033 2071.86 1074.48)"/><path d="M2.36797-18.5698C2.36797-25.4556 4.26857-30.5655 8.10094-33.8993 11.3413-36.6412 15.236-38.0121 19.8161-38.0121 24.8637-38.0121 29.0387-36.2984 32.2791-32.9023 35.5195-29.5684 37.1397-24.9571 37.1397-19.0684 37.1397-14.3324 36.4231-10.5935 35.021-7.85168 33.5877-5.10982 31.5313-2.9288 28.7895-1.37093 26.0476 0.12463 23.0565 0.872409 19.8161 0.872409 14.5817 0.872409 10.3443-0.778936 7.1039-4.11278 3.92584-7.50894 2.36797-12.3384 2.36797-18.5698ZM8.84872-18.5698C8.84872-13.8339 9.87691-10.2508 11.9645-7.85168 14.0209-5.51487 16.6381-4.36204 19.8161-4.36204 22.963-4.36204 25.5803-5.51487 27.6678-7.85168 29.7242-10.2508 30.7836-13.8962 30.7836-18.8191 30.7836-23.3681 29.6931-26.8266 27.5432-29.1634 25.4556-31.5625 22.8696-32.7776 19.8161-32.7776 16.6381-32.7776 14.0209-31.5625 11.9645-29.1634 9.87691-26.8266 8.84872-23.3058 8.84872-18.5698Z" transform="matrix(1 0 0 1.00033 2131.6 1074.48)"/><path d="M4.6113 0 4.6113-37.1397 10.3443-37.1397 10.3443-31.5313C11.7464-34.1797 13.0861-35.9245 14.3324-36.7658 15.5787-37.5759 16.8873-38.0121 18.3206-38.0121 20.4704-38.0121 22.6203-37.3266 24.8013-36.018L22.6826-30.1604C21.0936-31.064 19.5669-31.5313 18.0713-31.5313 16.6381-31.5313 15.3918-31.0951 14.3324-30.285 13.2419-29.4438 12.463-28.291 11.9645-26.7954 11.279-24.5521 10.9674-22.0906 10.9674-19.4423L10.9674 0Z" transform="matrix(1 0 0 1.00033 2171.48 1074.48)"/><path d="M4.48667 14.3324 3.73889 8.3502C5.14098 8.75524 6.35612 8.97335 7.35316 8.97335 8.75524 8.97335 9.87691 8.72409 10.7182 8.22557 11.5283 7.78936 12.2137 7.16622 12.7122 6.35612 13.1173 5.67066 13.7716 4.11278 14.7063 1.62019 14.7686 1.27745 14.9556 0.778936 15.2048 0.12463L1.12167-37.1397 7.97631-37.1397 15.7034-15.7034C16.7004-12.9615 17.5728-10.0327 18.3206-6.97927 19.0684-9.87691 19.9408-12.7122 20.9378-15.4541L28.9141-37.1397 35.1456-37.1397 21.0624 0.623149C19.5669 4.67362 18.3829 7.50894 17.5728 9.09798 16.3888 11.1544 15.0802 12.6499 13.5847 13.5847 12.1514 14.5817 10.4689 15.0802 8.47483 15.0802 7.29084 15.0802 5.98223 14.8309 4.48667 14.3324Z" transform="matrix(1 0 0 1.00033 2195.36 1074.48)"/><path d="M42.1249-17.9467 48.9795-16.3265C47.484-10.6559 44.8667-6.38728 41.1278-3.48963 37.4513-0.560834 32.9646 0.872409 27.6678 0.872409 22.1841 0.872409 17.6974-0.24926 14.2078-2.4926 10.7182-4.73593 8.03862-7.97631 6.23149-12.2137 4.48667-16.5134 3.61426-21.1248 3.61426-26.0476 3.61426-31.3444 4.6113-36.018 6.60538-40.0062 8.66178-43.9943 11.5906-47.0166 15.3295-49.1041 19.0684-51.1605 23.2123-52.2199 27.7924-52.2199 32.9334-52.2199 37.2643-50.8801 40.754-48.2317 44.2436-45.6457 46.6427-42.0002 47.9825-37.2643L41.3771-35.6441C40.1931-39.383 38.4483-42.0626 36.1426-43.7451 33.8993-45.4899 31.064-46.3623 27.6678-46.3623 23.6797-46.3623 20.3458-45.3964 17.6974-43.4958 15.1114-41.6575 13.2731-39.1338 12.2137-35.8934 11.1232-32.7153 10.5935-29.4438 10.5935-26.0476 10.5935-21.7167 11.2167-17.8844 12.463-14.5817 13.7093-11.3413 15.641-8.91104 18.3206-7.35316 21.0624-5.76413 23.9912-4.98519 27.1693-4.98519 30.9082-4.98519 34.0863-6.04454 36.7658-8.22557 39.4142-10.3754 41.1902-13.6158 42.1249-17.9467Z" transform="matrix(1 0 0 1.00033 2251.13 1074.48)"/><path d="M30.1604-11.9645 36.6412-11.2167C35.6441-7.38432 33.7124-4.3932 30.9082-2.24334 28.1663-0.155787 24.6144 0.872409 20.3147 0.872409 14.8933 0.872409 10.5935-0.778936 7.35316-4.11278 4.1751-7.50894 2.61723-12.2449 2.61723-18.3206 2.61723-24.5521 4.23741-29.3503 7.47779-32.7776 10.7182-36.2673 14.8621-38.0121 19.9408-38.0121 24.926-38.0121 28.9764-36.2984 32.1545-32.9023 35.3014-29.4749 36.8904-24.739 36.8904-18.6945 36.8904-18.2583 36.8904-17.6974 36.8904-16.9497L9.09798-16.9497C9.34724-12.868 10.5001-9.75228 12.5876-7.60242 14.644-5.4214 17.2301-4.36204 20.3147-4.36204 22.6203-4.36204 24.6144-4.92288 26.2969-6.10686 27.9482-7.35316 29.2257-9.28492 30.1604-11.9645ZM9.47187-22.1841 30.285-22.1841C29.9423-25.2375 29.1011-27.5743 27.7924-29.1634 25.7984-31.5625 23.2123-32.7776 20.0654-32.7776 17.1366-32.7776 14.7063-31.8118 12.7122-29.9112 10.7805-27.9794 9.72113-25.4245 9.47187-22.1841Z" transform="matrix(1 0 0 1.00033 2302.92 1074.48)"/><path d="M4.6113 0 4.6113-51.3475 10.8428-51.3475 10.8428 0Z" transform="matrix(1 0 0 1.00033 2342.8 1074.48)"/><path d="M4.6113 0 4.6113-51.3475 10.8428-51.3475 10.8428 0Z" transform="matrix(1 0 0 1.00033 2358.73 1074.48)"/><path d="M36.2673-9.09798 36.2673 0 1.74482 0C2.14986-3.48963 3.27153-6.76117 5.10982-9.84576 7.01043-12.8992 10.7182-16.9808 16.2019-22.0595 20.5951-26.2034 23.3058-29.0387 24.3028-30.5343 25.7049-32.5284 26.4215-34.5225 26.4215-36.5165 26.4215-38.7599 25.7984-40.4424 24.5521-41.6264 23.3681-42.7792 21.7479-43.3712 19.6915-43.3712 17.6974-43.3712 16.0772-42.748 14.8309-41.5017 13.5847-40.2554 12.868-38.199 12.7122-35.3949L2.99112-36.2673C3.55195-41.751 5.39024-45.6457 8.47483-47.9825 11.5283-50.2881 15.3606-51.4721 19.9408-51.4721 24.9883-51.4721 28.9764-50.1012 31.9052-47.3593 34.8029-44.6798 36.2673-41.3148 36.2673-37.2643 36.2673-34.9275 35.8311-32.7153 35.021-30.6589 34.1797-28.5714 32.84-26.3592 31.0328-24.0536 29.8488-22.558 27.699-20.3458 24.5521-17.4482 21.4675-14.6128 19.5046-12.7434 18.6945-11.8398 17.8532-10.9051 17.1989-10.0015 16.7004-9.09798Z" transform="matrix(1 0 0 1.00033 2143.58 1164.15)"/><path d="M2139.24 5.98557 2736.81 5.98557 2736.81 304.754 2139.24 304.754Z" stroke="#000000" stroke-width="5.97556" fill="#FFFFFF" transform="matrix(1 0 0 1.00033 335.976 939.989)"/><path d="M5.35908 0 5.35908-51.3475 15.5787-51.3475 27.6678-14.9556C28.8206-11.5283 29.6619-9.0045 30.1604-7.35316 30.7212-9.25376 31.656-11.9956 32.9023-15.5787L45.116-51.3475 54.214-51.3475 54.214 0 47.7332 0 47.7332-42.8727 32.7776 0 26.6708 0 11.8398-43.6204 11.8398 0Z" transform="matrix(1 0 0 1.00033 2569.81 1074.48)"/><path d="M30.1604-11.9645 36.6412-11.2167C35.6441-7.38432 33.7124-4.3932 30.9082-2.24334 28.1663-0.155787 24.6144 0.872409 20.3147 0.872409 14.8933 0.872409 10.5935-0.778936 7.35316-4.11278 4.1751-7.50894 2.61723-12.2449 2.61723-18.3206 2.61723-24.5521 4.23741-29.3503 7.47779-32.7776 10.7182-36.2673 14.8621-38.0121 19.9408-38.0121 24.926-38.0121 28.9764-36.2984 32.1545-32.9023 35.3014-29.4749 36.8904-24.739 36.8904-18.6945 36.8904-18.2583 36.8904-17.6974 36.8904-16.9497L9.09798-16.9497C9.34724-12.868 10.5001-9.75228 12.5876-7.60242 14.644-5.4214 17.2301-4.36204 20.3147-4.36204 22.6203-4.36204 24.6144-4.92288 26.2969-6.10686 27.9482-7.35316 29.2257-9.28492 30.1604-11.9645ZM9.47187-22.1841 30.285-22.1841C29.9423-25.2375 29.1011-27.5743 27.7924-29.1634 25.7984-31.5625 23.2123-32.7776 20.0654-32.7776 17.1366-32.7776 14.7063-31.8118 12.7122-29.9112 10.7805-27.9794 9.72113-25.4245 9.47187-22.1841Z" transform="matrix(1 0 0 1.00033 2629.54 1074.48)"/><path d="M4.73593 0 4.73593-37.1397 10.3443-37.1397 10.3443-31.9052C11.4971-33.7124 13.0238-35.1768 14.9556-36.2673 16.9497-37.4201 19.193-38.0121 21.6856-38.0121 24.4274-38.0121 26.6708-37.4201 28.4156-36.2673 30.1604-35.0833 31.4067-33.5254 32.1545-31.5313 35.0521-35.8311 38.8845-38.0121 43.6204-38.0121 47.2659-38.0121 50.1012-36.9527 52.0953-34.8964 54.0893-32.9023 55.0864-29.7865 55.0864-25.5491L55.0864 0 48.8549 0 48.8549-23.4304C48.8549-25.923 48.6368-27.699 48.2317-28.7895 47.7955-29.9423 47.0478-30.8459 45.9884-31.5313 44.8979-32.1856 43.6516-32.5284 42.2495-32.5284 39.57-32.5284 37.3889-31.656 35.6441-29.9112 33.9616-28.1663 33.1515-25.3622 33.1515-21.561L33.1515 0 26.7954 0 26.7954-24.1782C26.7954-26.92 26.2346-28.9764 25.1752-30.4097 24.1782-31.8118 22.4957-32.5284 20.19-32.5284 18.4452-32.5284 16.825-32.061 15.3295-31.1575 13.8339-30.2227 12.7122-28.8518 11.9645-27.0447 11.279-25.2064 10.9674-22.6203 10.9674-19.3176L10.9674 0Z" transform="matrix(1 0 0 1.00033 2669.42 1074.48)"/><path d="M2.36797-18.5698C2.36797-25.4556 4.26857-30.5655 8.10094-33.8993 11.3413-36.6412 15.236-38.0121 19.8161-38.0121 24.8637-38.0121 29.0387-36.2984 32.2791-32.9023 35.5195-29.5684 37.1397-24.9571 37.1397-19.0684 37.1397-14.3324 36.4231-10.5935 35.021-7.85168 33.5877-5.10982 31.5313-2.9288 28.7895-1.37093 26.0476 0.12463 23.0565 0.872409 19.8161 0.872409 14.5817 0.872409 10.3443-0.778936 7.1039-4.11278 3.92584-7.50894 2.36797-12.3384 2.36797-18.5698ZM8.84872-18.5698C8.84872-13.8339 9.87691-10.2508 11.9645-7.85168 14.0209-5.51487 16.6381-4.36204 19.8161-4.36204 22.963-4.36204 25.5803-5.51487 27.6678-7.85168 29.7242-10.2508 30.7836-13.8962 30.7836-18.8191 30.7836-23.3681 29.6931-26.8266 27.5432-29.1634 25.4556-31.5625 22.8696-32.7776 19.8161-32.7776 16.6381-32.7776 14.0209-31.5625 11.9645-29.1634 9.87691-26.8266 8.84872-23.3058 8.84872-18.5698Z" transform="matrix(1 0 0 1.00033 2729.15 1074.48)"/><path d="M4.6113 0 4.6113-37.1397 10.3443-37.1397 10.3443-31.5313C11.7464-34.1797 13.0861-35.9245 14.3324-36.7658 15.5787-37.5759 16.8873-38.0121 18.3206-38.0121 20.4704-38.0121 22.6203-37.3266 24.8013-36.018L22.6826-30.1604C21.0936-31.064 19.5669-31.5313 18.0713-31.5313 16.6381-31.5313 15.3918-31.0951 14.3324-30.285 13.2419-29.4438 12.463-28.291 11.9645-26.7954 11.279-24.5521 10.9674-22.0906 10.9674-19.4423L10.9674 0Z" transform="matrix(1 0 0 1.00033 2769.03 1074.48)"/><path d="M4.48667 14.3324 3.73889 8.3502C5.14098 8.75524 6.35612 8.97335 7.35316 8.97335 8.75524 8.97335 9.87691 8.72409 10.7182 8.22557 11.5283 7.78936 12.2137 7.16622 12.7122 6.35612 13.1173 5.67066 13.7716 4.11278 14.7063 1.62019 14.7686 1.27745 14.9556 0.778936 15.2048 0.12463L1.12167-37.1397 7.97631-37.1397 15.7034-15.7034C16.7004-12.9615 17.5728-10.0327 18.3206-6.97927 19.0684-9.87691 19.9408-12.7122 20.9378-15.4541L28.9141-37.1397 35.1456-37.1397 21.0624 0.623149C19.5669 4.67362 18.3829 7.50894 17.5728 9.09798 16.3888 11.1544 15.0802 12.6499 13.5847 13.5847 12.1514 14.5817 10.4689 15.0802 8.47483 15.0802 7.29084 15.0802 5.98223 14.8309 4.48667 14.3324Z" transform="matrix(1 0 0 1.00033 2792.91 1074.48)"/><path d="M42.1249-17.9467 48.9795-16.3265C47.484-10.6559 44.8667-6.38728 41.1278-3.48963 37.4513-0.560834 32.9646 0.872409 27.6678 0.872409 22.1841 0.872409 17.6974-0.24926 14.2078-2.4926 10.7182-4.73593 8.03862-7.97631 6.23149-12.2137 4.48667-16.5134 3.61426-21.1248 3.61426-26.0476 3.61426-31.3444 4.6113-36.018 6.60538-40.0062 8.66178-43.9943 11.5906-47.0166 15.3295-49.1041 19.0684-51.1605 23.2123-52.2199 27.7924-52.2199 32.9334-52.2199 37.2643-50.8801 40.754-48.2317 44.2436-45.6457 46.6427-42.0002 47.9825-37.2643L41.3771-35.6441C40.1931-39.383 38.4483-42.0626 36.1426-43.7451 33.8993-45.4899 31.064-46.3623 27.6678-46.3623 23.6797-46.3623 20.3458-45.3964 17.6974-43.4958 15.1114-41.6575 13.2731-39.1338 12.2137-35.8934 11.1232-32.7153 10.5935-29.4438 10.5935-26.0476 10.5935-21.7167 11.2167-17.8844 12.463-14.5817 13.7093-11.3413 15.641-8.91104 18.3206-7.35316 21.0624-5.76413 23.9912-4.98519 27.1693-4.98519 30.9082-4.98519 34.0863-6.04454 36.7658-8.22557 39.4142-10.3754 41.1902-13.6158 42.1249-17.9467Z" transform="matrix(1 0 0 1.00033 2848.69 1074.48)"/><path d="M30.1604-11.9645 36.6412-11.2167C35.6441-7.38432 33.7124-4.3932 30.9082-2.24334 28.1663-0.155787 24.6144 0.872409 20.3147 0.872409 14.8933 0.872409 10.5935-0.778936 7.35316-4.11278 4.1751-7.50894 2.61723-12.2449 2.61723-18.3206 2.61723-24.5521 4.23741-29.3503 7.47779-32.7776 10.7182-36.2673 14.8621-38.0121 19.9408-38.0121 24.926-38.0121 28.9764-36.2984 32.1545-32.9023 35.3014-29.4749 36.8904-24.739 36.8904-18.6945 36.8904-18.2583 36.8904-17.6974 36.8904-16.9497L9.09798-16.9497C9.34724-12.868 10.5001-9.75228 12.5876-7.60242 14.644-5.4214 17.2301-4.36204 20.3147-4.36204 22.6203-4.36204 24.6144-4.92288 26.2969-6.10686 27.9482-7.35316 29.2257-9.28492 30.1604-11.9645ZM9.47187-22.1841 30.285-22.1841C29.9423-25.2375 29.1011-27.5743 27.7924-29.1634 25.7984-31.5625 23.2123-32.7776 20.0654-32.7776 17.1366-32.7776 14.7063-31.8118 12.7122-29.9112 10.7805-27.9794 9.72113-25.4245 9.47187-22.1841Z" transform="matrix(1 0 0 1.00033 2900.47 1074.48)"/><path d="M4.6113 0 4.6113-51.3475 10.8428-51.3475 10.8428 0Z" transform="matrix(1 0 0 1.00033 2940.35 1074.48)"/><path d="M4.6113 0 4.6113-51.3475 10.8428-51.3475 10.8428 0Z" transform="matrix(1 0 0 1.00033 2956.28 1074.48)"/><path d="M2.74186-13.5847 12.2137-14.7063C12.5253-12.276 13.3665-10.4066 14.7063-9.09798 16.0149-7.85168 17.604-7.22853 19.4423-7.22853 21.4986-7.22853 23.2123-7.97631 24.5521-9.47187 25.9542-11.0297 26.6708-13.1484 26.6708-15.828 26.6708-18.3206 25.9853-20.2523 24.6767-21.6856 23.3369-23.0877 21.7167-23.8043 19.8161-23.8043 18.5698-23.8043 17.0743-23.5862 15.3295-23.1811L16.4511-31.1575C19.0995-31.064 21.0936-31.656 22.4334-32.9023 23.8355-34.1486 24.5521-35.7688 24.5521-37.7628 24.5521-39.5077 24.0536-40.8786 23.0565-41.8756 22.0595-42.8727 20.6885-43.3712 18.9437-43.3712 17.2612-43.3712 15.828-42.7792 14.5817-41.6264 13.3977-40.4424 12.7122-38.7599 12.463-36.5165L3.48963-38.1367C4.05047-41.1902 4.98519-43.6516 6.23149-45.4899 7.5401-47.3905 9.34724-48.8549 11.5906-49.8519 13.8339-50.9113 16.3577-51.4721 19.193-51.4721 24.0847-51.4721 27.9794-49.9142 30.9082-46.8608 33.3073-44.3682 34.5225-41.5329 34.5225-38.386 34.5225-33.8993 32.0299-30.285 27.0447-27.5432 30.0358-26.9512 32.4038-25.5491 34.1486-23.3058 35.8934-21.1248 36.7658-18.5075 36.7658-15.4541 36.7658-10.874 35.0833-7.01043 31.7806-3.86352 28.5402-0.685464 24.4586 0.872409 19.5669 0.872409 14.8933 0.872409 11.0297-0.436204 7.97631-3.11575 4.98519-5.76413 3.24038-9.25376 2.74186-13.5847Z" transform="matrix(1 0 0 1.00033 2751.04 1164.15)"/><path d="M346.568 155.354 85.8733 155.354" stroke="#000000" stroke-width="5.97556" stroke-miterlimit="10" fill="none" transform="matrix(1 0 0 1.00033 335.976 939.989)"/><path d="M54.4977 155.354 96.3111 134.448 85.8733 155.354 96.3111 176.292Z" stroke="#000000" stroke-width="5.97556" stroke-miterlimit="10" transform="matrix(1 0 0 1.00033 335.976 939.989)"/><path d="M645.368 304.754 645.368 603.523 1085.34 603.523" stroke="#000000" stroke-width="5.97556" stroke-miterlimit="10" fill="none" transform="matrix(1 0 0 1.00033 335.976 939.989)"/><path d="M1116.72 603.523 1074.87 624.461 1085.34 603.523 1074.87 582.617Z" stroke="#000000" stroke-width="5.97556" stroke-miterlimit="10" transform="matrix(1 0 0 1.00033 335.976 939.989)"/><path d="M687.178 322.667 860.475 322.667 860.475 418.289 687.178 418.289Z" fill="#FFFFFF" transform="matrix(1 0 0 1.00033 332.988 937)"/><path d="M26.5462-4.23741C24.3651-2.39912 22.3087-1.12167 20.3147-0.373889 18.3829 0.373889 16.2642 0.747779 13.9585 0.747779 10.2196 0.747779 7.35316-0.155787 5.35908-1.99408 3.36501-3.80121 2.36797-6.13802 2.36797-8.97335 2.36797-10.6247 2.74186-12.1202 3.48963-13.46 4.23741-14.8621 5.23445-15.9838 6.48075-16.825 7.72705-17.6351 9.09798-18.3206 10.5935-18.8191 11.7464-19.0684 13.4912-19.3176 15.828-19.5669 20.4704-20.1277 23.8666-20.8132 26.0476-21.561 26.0476-22.3711 26.0476-22.9319 26.0476-23.1811 26.0476-25.4868 25.4868-27.107 24.4274-28.0417 22.9942-29.3503 20.8443-30.0358 17.9467-30.0358 15.2048-30.0358 13.1484-29.5373 11.8398-28.5402 10.5935-27.6055 9.62765-25.9542 8.97335-23.555L3.36501-24.3028C3.86352-26.7019 4.67362-28.6649 5.8576-30.1604 7.1039-31.656 8.7864-32.7776 10.9674-33.5254 13.2108-34.3355 15.7657-34.7717 18.6945-34.7717 21.5921-34.7717 23.9601-34.429 25.7984-33.7747 27.6055-33.0892 28.9453-32.2168 29.7865-31.1575 30.6901-30.1604 31.3132-28.8518 31.656-27.2939 31.8118-26.2969 31.9052-24.4898 31.9052-21.9348L31.9052-14.3324C31.9052-8.91104 32.0299-5.51487 32.2791-4.11278 32.5284-2.67955 33.0269-1.30861 33.7747 0L27.6678 0C27.0758-1.15282 26.7019-2.55491 26.5462-4.23741ZM26.0476-17.0743C23.9601-16.233 20.8443-15.5164 16.7004-14.9556 14.2701-14.6128 12.5876-14.2078 11.5906-13.7093 10.5935-13.2731 9.78344-12.6499 9.22261-11.8398 8.72409-10.9986 8.47483-10.095 8.47483-9.09798 8.47483-7.60242 9.03566-6.2938 10.2196-5.23445 11.3725-4.23741 13.1173-3.73889 15.4541-3.73889 17.604-3.73889 19.5669-4.23741 21.3117-5.23445 23.0565-6.23149 24.334-7.5401 25.1752-9.22261 25.7361-10.5312 26.0476-12.463 26.0476-14.9556Z" transform="matrix(1 0 0 1.00033 1017.66 1319.56)"/><path d="M2.24334-19.3176C2.24334-23.9601 2.67955-27.699 3.61426-30.5343 4.6113-33.3385 6.01339-35.5195 7.85168-37.0151 9.75228-38.5729 12.1514-39.383 15.0802-39.383 17.1366-39.383 18.9749-38.9157 20.5639-38.0121 22.1218-37.1708 23.4304-35.9557 24.4274-34.3978 25.4868-32.8088 26.328-30.8459 26.92-28.5402 27.4809-26.2969 27.7924-23.2123 27.7924-19.3176 27.7924-14.7375 27.2939-11.0297 26.2969-8.22557 25.3622-5.39024 23.9601-3.17806 22.0595-1.62019 20.2212-0.12463 17.8844 0.623149 15.0802 0.623149 11.2478 0.623149 8.25672-0.685464 6.10686-3.36501 3.52079-6.60538 2.24334-11.9022 2.24334-19.3176ZM7.22853-19.3176C7.22853-12.8992 7.97631-8.63061 9.47187-6.48075 10.9674-4.29973 12.8369-3.24038 15.0802-3.24038 17.2301-3.24038 19.0684-4.29973 20.5639-6.48075 22.0595-8.63061 22.8073-12.8992 22.8073-19.3176 22.8073-25.7984 22.0595-30.0669 20.5639-32.1545 19.0684-34.3044 17.1989-35.3949 14.9556-35.3949 12.7746-35.3949 11.0297-34.429 9.72113-32.5284 8.03862-30.0981 7.22853-25.7049 7.22853-19.3176Z" transform="matrix(1 0 0 1.00033 1054.16 1337.5)"/><path d="M34.6471-27.6678 3.61426-27.6678 3.61426-33.0269 34.6471-33.0269ZM34.6471-13.3354 3.61426-13.3354 3.61426-18.8191 34.6471-18.8191Z" transform="matrix(1 0 0 1.00033 1102.81 1319.56)"/><path d="M24.4274 0 18.6945 0 18.6945-36.7658C17.2612-35.426 15.4541-34.0863 13.2108-32.7776 10.9674-31.4379 8.91104-30.4408 7.1039-29.7865L7.1039-35.3949C10.3443-36.8904 13.1484-38.6976 15.5787-40.8786 17.9778-43.0284 19.6915-45.1471 20.6885-47.2347L24.4274-47.2347Z" transform="matrix(1 0 0 1.00033 1159.46 1319.56)"/><path d="M1242.91 304.754 1242.91 445.96" stroke="#000000" stroke-width="5.97556" stroke-miterlimit="10" fill="none" transform="matrix(1 0 0 1.00033 335.976 939.989)"/><path d="M1242.91 477.336 1222 435.491 1242.91 445.96 1263.84 435.491Z" stroke="#000000" stroke-width="5.97556" stroke-miterlimit="10" transform="matrix(1 0 0 1.00033 335.976 939.989)"/><path d="M1284.75 334.631 1458.04 334.631 1458.04 430.253 1284.75 430.253Z" fill="#FFFFFF" transform="matrix(1 0 0 1.00033 332.988 937)"/><path d="M26.5462-4.23741C24.3651-2.39912 22.3087-1.12167 20.3147-0.373889 18.3829 0.373889 16.2642 0.747779 13.9585 0.747779 10.2196 0.747779 7.35316-0.155787 5.35908-1.99408 3.36501-3.80121 2.36797-6.13802 2.36797-8.97335 2.36797-10.6247 2.74186-12.1202 3.48963-13.46 4.23741-14.8621 5.23445-15.9838 6.48075-16.825 7.72705-17.6351 9.09798-18.3206 10.5935-18.8191 11.7464-19.0684 13.4912-19.3176 15.828-19.5669 20.4704-20.1277 23.8666-20.8132 26.0476-21.561 26.0476-22.3711 26.0476-22.9319 26.0476-23.1811 26.0476-25.4868 25.4868-27.107 24.4274-28.0417 22.9942-29.3503 20.8443-30.0358 17.9467-30.0358 15.2048-30.0358 13.1484-29.5373 11.8398-28.5402 10.5935-27.6055 9.62765-25.9542 8.97335-23.555L3.36501-24.3028C3.86352-26.7019 4.67362-28.6649 5.8576-30.1604 7.1039-31.656 8.7864-32.7776 10.9674-33.5254 13.2108-34.3355 15.7657-34.7717 18.6945-34.7717 21.5921-34.7717 23.9601-34.429 25.7984-33.7747 27.6055-33.0892 28.9453-32.2168 29.7865-31.1575 30.6901-30.1604 31.3132-28.8518 31.656-27.2939 31.8118-26.2969 31.9052-24.4898 31.9052-21.9348L31.9052-14.3324C31.9052-8.91104 32.0299-5.51487 32.2791-4.11278 32.5284-2.67955 33.0269-1.30861 33.7747 0L27.6678 0C27.0758-1.15282 26.7019-2.55491 26.5462-4.23741ZM26.0476-17.0743C23.9601-16.233 20.8443-15.5164 16.7004-14.9556 14.2701-14.6128 12.5876-14.2078 11.5906-13.7093 10.5935-13.2731 9.78344-12.6499 9.22261-11.8398 8.72409-10.9986 8.47483-10.095 8.47483-9.09798 8.47483-7.60242 9.03566-6.2938 10.2196-5.23445 11.3725-4.23741 13.1173-3.73889 15.4541-3.73889 17.604-3.73889 19.5669-4.23741 21.3117-5.23445 23.0565-6.23149 24.334-7.5401 25.1752-9.22261 25.7361-10.5312 26.0476-12.463 26.0476-14.9556Z" transform="matrix(1 0 0 1.00033 1615.31 1331.52)"/><path d="M20.4393 0 15.5787 0 15.5787-30.6589C14.3947-29.5684 12.868-28.4468 10.9674-27.2939 9.12913-26.2034 7.47779-25.3622 5.98223-24.8013L5.98223-29.5373C8.63061-30.7836 10.9674-32.2791 12.9615-34.0239 15.0179-35.8311 16.4823-37.6382 17.3235-39.383L20.4393-39.383Z" transform="matrix(1 0 0 1.00033 1651.81 1349.45)"/><path d="M34.6471-27.6678 3.61426-27.6678 3.61426-33.0269 34.6471-33.0269ZM34.6471-13.3354 3.61426-13.3354 3.61426-18.8191 34.6471-18.8191Z" transform="matrix(1 0 0 1.00033 1700.46 1331.52)"/><path d="M24.4274 0 18.6945 0 18.6945-36.7658C17.2612-35.426 15.4541-34.0863 13.2108-32.7776 10.9674-31.4379 8.91104-30.4408 7.1039-29.7865L7.1039-35.3949C10.3443-36.8904 13.1484-38.6976 15.5787-40.8786 17.9778-43.0284 19.6915-45.1471 20.6885-47.2347L24.4274-47.2347Z" transform="matrix(1 0 0 1.00033 1757.04 1331.52)"/><path d="M1362.43 603.523 3513.63 603.523 3513.63 155.354 3372.42 155.354" stroke="#000000" stroke-width="5.97556" stroke-miterlimit="10" fill="none" transform="matrix(1 0 0 1.00033 335.976 939.989)"/><path d="M3341.05 155.354 3382.89 134.448 3372.42 155.354 3382.89 176.292Z" stroke="#000000" stroke-width="5.97556" stroke-miterlimit="10" transform="matrix(1 0 0 1.00033 335.976 939.989)"/><path d="M1365.41 606.511C1365.41 614.363 1364.67 622.152 1363.11 629.848 1361.58 637.544 1359.31 644.99 1356.32 652.25 1353.32 659.51 1349.65 666.396 1345.29 672.908 1340.92 679.451 1335.97 685.464 1330.42 691.041 1324.88 696.587 1318.83 701.541 1312.29 705.903 1305.78 710.234 1298.89 713.942 1291.63 716.933 1284.4 719.924 1276.93 722.199 1269.23 723.725 1261.53 725.252 1253.74 726.031 1245.89 726.031 1238.07 726.031 1230.28 725.252 1222.59 723.725 1214.89 722.199 1207.41 719.924 1200.15 716.933 1192.93 713.942 1186.04 710.234 1179.5 705.903 1172.98 701.541 1166.94 696.587 1161.39 691.041 1155.85 685.464 1150.89 679.451 1146.53 672.908 1142.17 666.396 1138.49 659.51 1135.5 652.25 1132.48 644.99 1130.21 637.544 1128.68 629.848 1127.15 622.152 1126.4 614.363 1126.4 606.511 1126.4 598.659 1127.15 590.901 1128.68 583.205 1130.21 575.509 1132.48 568.032 1135.5 560.772 1138.49 553.543 1142.17 546.658 1146.53 540.115 1150.89 533.603 1155.85 527.558 1161.39 522.012 1166.94 516.466 1172.98 511.512 1179.5 507.15 1186.04 502.788 1192.93 499.111 1200.15 496.12 1207.41 493.098 1214.89 490.823 1222.59 489.297 1230.28 487.77 1238.07 487.022 1245.89 487.022 1253.74 487.022 1261.53 487.77 1269.23 489.297 1276.93 490.823 1284.4 493.098 1291.63 496.12 1298.89 499.111 1305.78 502.788 1312.29 507.15 1318.83 511.512 1324.88 516.466 1330.42 522.012 1335.97 527.558 1340.92 533.603 1345.29 540.115 1349.65 546.658 1353.32 553.543 1356.32 560.772 1359.31 568.032 1361.58 575.509 1363.11 583.205 1364.67 590.901 1365.41 598.659 1365.41 606.511Z" fill="#F5F5F5" transform="matrix(1 0 0 1.00033 332.988 937)"/><g clip-path="url(#clip5)"><path d="M1362.43 603.523C1362.43 611.375 1361.68 619.164 1360.12 626.86 1358.59 634.556 1356.32 642.003 1353.33 649.263 1350.34 656.522 1346.66 663.408 1342.3 669.92 1337.94 676.463 1332.98 682.476 1327.44 688.054 1321.89 693.6 1315.85 698.554 1309.3 702.916 1302.79 707.247 1295.9 710.954 1288.64 713.945 1281.42 716.937 1273.94 719.211 1266.24 720.738 1258.55 722.264 1250.76 723.043 1242.91 723.043 1235.09 723.043 1227.3 722.264 1219.6 720.738 1211.9 719.211 1204.43 716.937 1197.17 713.945 1189.94 710.954 1183.05 707.247 1176.51 702.916 1170 698.554 1163.95 693.6 1158.41 688.054 1152.86 682.476 1147.91 676.463 1143.54 669.92 1139.18 663.408 1135.51 656.522 1132.51 649.263 1129.49 642.003 1127.22 634.556 1125.69 626.86 1124.16 619.164 1123.42 611.375 1123.42 603.523 1123.42 595.672 1124.16 587.914 1125.69 580.218 1127.22 572.522 1129.49 565.044 1132.51 557.784 1135.51 550.556 1139.18 543.67 1143.54 537.127 1147.91 530.615 1152.86 524.57 1158.41 519.024 1163.95 513.478 1170 508.524 1176.51 504.162 1183.05 499.8 1189.94 496.124 1197.17 493.132 1204.43 490.11 1211.9 487.836 1219.6 486.309 1227.3 484.782 1235.09 484.035 1242.91 484.035 1250.76 484.035 1258.55 484.782 1266.24 486.309 1273.94 487.836 1281.42 490.11 1288.64 493.132 1295.9 496.124 1302.79 499.8 1309.3 504.162 1315.85 508.524 1321.89 513.478 1327.44 519.024 1332.98 524.57 1337.94 530.615 1342.3 537.127 1346.66 543.67 1350.34 550.556 1353.33 557.784 1356.32 565.044 1358.59 572.522 1360.12 580.218 1361.68 587.914 1362.43 595.672 1362.43 603.523Z" stroke="#636363" stroke-width="5.97556" fill="none" transform="matrix(1 0 0 1.00033 335.976 939.989)"/></g><path d="M0.373889 0 20.19-26.7954 2.61723-51.3475 10.7182-51.3475 20.0654-38.1367C21.966-35.3949 23.3369-33.2762 24.1782-31.7806 25.331-33.6812 26.7019-35.6441 28.291-37.6382L38.5106-51.3475 45.9884-51.3475 27.9171-27.1693 47.3593 0 38.8845 0 26.0476-18.3206C25.2999-19.3176 24.5521-20.4393 23.8043-21.6856 22.6203-19.8473 21.8102-18.5698 21.3117-17.8221L8.47483 0Z" fill="#303030" transform="matrix(1 0 0 1.00033 1498.13 1564.64)"/><path d="M3.48963-24.926C3.48963-33.4631 5.76413-40.162 10.3443-44.9914 14.8933-49.7896 20.8132-52.2199 28.0417-52.2199 32.7776-52.2199 37.0151-51.0359 40.754-48.7303 44.5552-46.4869 47.484-43.3089 49.478-39.2584 51.4721-35.2702 52.4692-30.6901 52.4692-25.5491 52.4692-20.377 51.4098-15.7345 49.3534-11.5906 47.2659-7.50894 44.2747-4.3932 40.3801-2.24334 36.5477-0.155787 32.4349 0.872409 28.0417 0.872409 23.1188 0.872409 18.7568-0.280417 14.9556-2.61723 11.2167-4.92288 8.3502-8.10094 6.35612-12.0891 4.42436-16.1396 3.48963-20.4393 3.48963-24.926ZM10.4689-24.926C10.4689-18.6945 12.1202-13.7716 15.4541-10.2196 18.7568-6.73001 22.9319-4.98519 27.9171-4.98519 33.0581-4.98519 37.2643-6.76117 40.5047-10.3443 43.8074-13.8962 45.4899-19.006 45.4899-25.6737 45.4899-29.8177 44.7733-33.4319 43.3712-36.5165 41.9379-39.6634 39.8815-42.0626 37.1397-43.7451 34.4601-45.4899 31.4379-46.3623 28.0417-46.3623 23.2123-46.3623 19.0684-44.6798 15.5787-41.3771 12.1514-38.1367 10.4689-32.653 10.4689-24.926Z" fill="#303030" transform="matrix(1 0 0 1.00033 1545.96 1564.64)"/><path d="M5.60834 0 5.60834-51.3475 28.4156-51.3475C32.9646-51.3475 36.4231-50.849 38.7599-49.8519 41.159-48.9172 43.0596-47.297 44.4928-44.9914 45.8949-42.6546 46.6116-40.0685 46.6116-37.2643 46.6116-33.5877 45.4276-30.5343 43.1219-28.0417 40.7851-25.5491 37.1397-23.9601 32.1545-23.3058 33.9616-22.4645 35.3326-21.6233 36.2673-20.8132 38.2614-18.9749 40.1308-16.7004 41.8756-13.9585L50.849 0 42.2495 0 35.5195-10.7182C33.5254-13.7716 31.8429-16.1084 30.5343-17.6974 29.288-19.3488 28.1663-20.5016 27.1693-21.1871 26.1723-21.8414 25.1129-22.3087 24.0536-22.558 23.3058-22.7138 22.0595-22.8073 20.3147-22.8073L12.463-22.8073 12.463 0ZM12.463-28.6649 27.0447-28.6649C30.0981-28.6649 32.5284-28.9453 34.2732-29.5373 36.018-30.1916 37.3266-31.2198 38.2614-32.653 39.1649-34.0551 39.6323-35.5818 39.6323-37.2643 39.6323-39.6634 38.7599-41.6575 37.0151-43.2465 35.2702-44.8044 32.4661-45.6145 28.6649-45.6145L12.463-45.6145Z" fill="#303030" transform="matrix(1 0 0 1.00033 1601.73 1564.64)"/><path d="M2736.81 5.98557 3334.35 5.98557 3334.35 304.754 2736.81 304.754Z" stroke="#000000" stroke-width="5.97556" fill="#FFFFFF" transform="matrix(1 0 0 1.00033 335.976 939.989)"/><path d="M5.35908 0 5.35908-51.3475 15.5787-51.3475 27.6678-14.9556C28.8206-11.5283 29.6619-9.0045 30.1604-7.35316 30.7212-9.25376 31.656-11.9956 32.9023-15.5787L45.116-51.3475 54.214-51.3475 54.214 0 47.7332 0 47.7332-42.8727 32.7776 0 26.6708 0 11.8398-43.6204 11.8398 0Z" transform="matrix(1 0 0 1.00033 3167.36 1074.48)"/><path d="M30.1604-11.9645 36.6412-11.2167C35.6441-7.38432 33.7124-4.3932 30.9082-2.24334 28.1663-0.155787 24.6144 0.872409 20.3147 0.872409 14.8933 0.872409 10.5935-0.778936 7.35316-4.11278 4.1751-7.50894 2.61723-12.2449 2.61723-18.3206 2.61723-24.5521 4.23741-29.3503 7.47779-32.7776 10.7182-36.2673 14.8621-38.0121 19.9408-38.0121 24.926-38.0121 28.9764-36.2984 32.1545-32.9023 35.3014-29.4749 36.8904-24.739 36.8904-18.6945 36.8904-18.2583 36.8904-17.6974 36.8904-16.9497L9.09798-16.9497C9.34724-12.868 10.5001-9.75228 12.5876-7.60242 14.644-5.4214 17.2301-4.36204 20.3147-4.36204 22.6203-4.36204 24.6144-4.92288 26.2969-6.10686 27.9482-7.35316 29.2257-9.28492 30.1604-11.9645ZM9.47187-22.1841 30.285-22.1841C29.9423-25.2375 29.1011-27.5743 27.7924-29.1634 25.7984-31.5625 23.2123-32.7776 20.0654-32.7776 17.1366-32.7776 14.7063-31.8118 12.7122-29.9112 10.7805-27.9794 9.72113-25.4245 9.47187-22.1841Z" transform="matrix(1 0 0 1.00033 3227.1 1074.48)"/><path d="M4.73593 0 4.73593-37.1397 10.3443-37.1397 10.3443-31.9052C11.4971-33.7124 13.0238-35.1768 14.9556-36.2673 16.9497-37.4201 19.193-38.0121 21.6856-38.0121 24.4274-38.0121 26.6708-37.4201 28.4156-36.2673 30.1604-35.0833 31.4067-33.5254 32.1545-31.5313 35.0521-35.8311 38.8845-38.0121 43.6204-38.0121 47.2659-38.0121 50.1012-36.9527 52.0953-34.8964 54.0893-32.9023 55.0864-29.7865 55.0864-25.5491L55.0864 0 48.8549 0 48.8549-23.4304C48.8549-25.923 48.6368-27.699 48.2317-28.7895 47.7955-29.9423 47.0478-30.8459 45.9884-31.5313 44.8979-32.1856 43.6516-32.5284 42.2495-32.5284 39.57-32.5284 37.3889-31.656 35.6441-29.9112 33.9616-28.1663 33.1515-25.3622 33.1515-21.561L33.1515 0 26.7954 0 26.7954-24.1782C26.7954-26.92 26.2346-28.9764 25.1752-30.4097 24.1782-31.8118 22.4957-32.5284 20.19-32.5284 18.4452-32.5284 16.825-32.061 15.3295-31.1575 13.8339-30.2227 12.7122-28.8518 11.9645-27.0447 11.279-25.2064 10.9674-22.6203 10.9674-19.3176L10.9674 0Z" transform="matrix(1 0 0 1.00033 3266.98 1074.48)"/><path d="M2.36797-18.5698C2.36797-25.4556 4.26857-30.5655 8.10094-33.8993 11.3413-36.6412 15.236-38.0121 19.8161-38.0121 24.8637-38.0121 29.0387-36.2984 32.2791-32.9023 35.5195-29.5684 37.1397-24.9571 37.1397-19.0684 37.1397-14.3324 36.4231-10.5935 35.021-7.85168 33.5877-5.10982 31.5313-2.9288 28.7895-1.37093 26.0476 0.12463 23.0565 0.872409 19.8161 0.872409 14.5817 0.872409 10.3443-0.778936 7.1039-4.11278 3.92584-7.50894 2.36797-12.3384 2.36797-18.5698ZM8.84872-18.5698C8.84872-13.8339 9.87691-10.2508 11.9645-7.85168 14.0209-5.51487 16.6381-4.36204 19.8161-4.36204 22.963-4.36204 25.5803-5.51487 27.6678-7.85168 29.7242-10.2508 30.7836-13.8962 30.7836-18.8191 30.7836-23.3681 29.6931-26.8266 27.5432-29.1634 25.4556-31.5625 22.8696-32.7776 19.8161-32.7776 16.6381-32.7776 14.0209-31.5625 11.9645-29.1634 9.87691-26.8266 8.84872-23.3058 8.84872-18.5698Z" transform="matrix(1 0 0 1.00033 3326.71 1074.48)"/><path d="M4.6113 0 4.6113-37.1397 10.3443-37.1397 10.3443-31.5313C11.7464-34.1797 13.0861-35.9245 14.3324-36.7658 15.5787-37.5759 16.8873-38.0121 18.3206-38.0121 20.4704-38.0121 22.6203-37.3266 24.8013-36.018L22.6826-30.1604C21.0936-31.064 19.5669-31.5313 18.0713-31.5313 16.6381-31.5313 15.3918-31.0951 14.3324-30.285 13.2419-29.4438 12.463-28.291 11.9645-26.7954 11.279-24.5521 10.9674-22.0906 10.9674-19.4423L10.9674 0Z" transform="matrix(1 0 0 1.00033 3366.59 1074.48)"/><path d="M4.48667 14.3324 3.73889 8.3502C5.14098 8.75524 6.35612 8.97335 7.35316 8.97335 8.75524 8.97335 9.87691 8.72409 10.7182 8.22557 11.5283 7.78936 12.2137 7.16622 12.7122 6.35612 13.1173 5.67066 13.7716 4.11278 14.7063 1.62019 14.7686 1.27745 14.9556 0.778936 15.2048 0.12463L1.12167-37.1397 7.97631-37.1397 15.7034-15.7034C16.7004-12.9615 17.5728-10.0327 18.3206-6.97927 19.0684-9.87691 19.9408-12.7122 20.9378-15.4541L28.9141-37.1397 35.1456-37.1397 21.0624 0.623149C19.5669 4.67362 18.3829 7.50894 17.5728 9.09798 16.3888 11.1544 15.0802 12.6499 13.5847 13.5847 12.1514 14.5817 10.4689 15.0802 8.47483 15.0802 7.29084 15.0802 5.98223 14.8309 4.48667 14.3324Z" transform="matrix(1 0 0 1.00033 3390.47 1074.48)"/><path d="M42.1249-17.9467 48.9795-16.3265C47.484-10.6559 44.8667-6.38728 41.1278-3.48963 37.4513-0.560834 32.9646 0.872409 27.6678 0.872409 22.1841 0.872409 17.6974-0.24926 14.2078-2.4926 10.7182-4.73593 8.03862-7.97631 6.23149-12.2137 4.48667-16.5134 3.61426-21.1248 3.61426-26.0476 3.61426-31.3444 4.6113-36.018 6.60538-40.0062 8.66178-43.9943 11.5906-47.0166 15.3295-49.1041 19.0684-51.1605 23.2123-52.2199 27.7924-52.2199 32.9334-52.2199 37.2643-50.8801 40.754-48.2317 44.2436-45.6457 46.6427-42.0002 47.9825-37.2643L41.3771-35.6441C40.1931-39.383 38.4483-42.0626 36.1426-43.7451 33.8993-45.4899 31.064-46.3623 27.6678-46.3623 23.6797-46.3623 20.3458-45.3964 17.6974-43.4958 15.1114-41.6575 13.2731-39.1338 12.2137-35.8934 11.1232-32.7153 10.5935-29.4438 10.5935-26.0476 10.5935-21.7167 11.2167-17.8844 12.463-14.5817 13.7093-11.3413 15.641-8.91104 18.3206-7.35316 21.0624-5.76413 23.9912-4.98519 27.1693-4.98519 30.9082-4.98519 34.0863-6.04454 36.7658-8.22557 39.4142-10.3754 41.1902-13.6158 42.1249-17.9467Z" transform="matrix(1 0 0 1.00033 3446.24 1074.48)"/><path d="M30.1604-11.9645 36.6412-11.2167C35.6441-7.38432 33.7124-4.3932 30.9082-2.24334 28.1663-0.155787 24.6144 0.872409 20.3147 0.872409 14.8933 0.872409 10.5935-0.778936 7.35316-4.11278 4.1751-7.50894 2.61723-12.2449 2.61723-18.3206 2.61723-24.5521 4.23741-29.3503 7.47779-32.7776 10.7182-36.2673 14.8621-38.0121 19.9408-38.0121 24.926-38.0121 28.9764-36.2984 32.1545-32.9023 35.3014-29.4749 36.8904-24.739 36.8904-18.6945 36.8904-18.2583 36.8904-17.6974 36.8904-16.9497L9.09798-16.9497C9.34724-12.868 10.5001-9.75228 12.5876-7.60242 14.644-5.4214 17.2301-4.36204 20.3147-4.36204 22.6203-4.36204 24.6144-4.92288 26.2969-6.10686 27.9482-7.35316 29.2257-9.28492 30.1604-11.9645ZM9.47187-22.1841 30.285-22.1841C29.9423-25.2375 29.1011-27.5743 27.7924-29.1634 25.7984-31.5625 23.2123-32.7776 20.0654-32.7776 17.1366-32.7776 14.7063-31.8118 12.7122-29.9112 10.7805-27.9794 9.72113-25.4245 9.47187-22.1841Z" transform="matrix(1 0 0 1.00033 3498.03 1074.48)"/><path d="M4.6113 0 4.6113-51.3475 10.8428-51.3475 10.8428 0Z" transform="matrix(1 0 0 1.00033 3537.91 1074.48)"/><path d="M4.6113 0 4.6113-51.3475 10.8428-51.3475 10.8428 0Z" transform="matrix(1 0 0 1.00033 3553.84 1074.48)"/><path d="M22.3087 0 22.3087-10.3443 1.37093-10.3443 1.37093-18.9437 23.555-51.4721 31.7806-51.4721 31.7806-18.9437 38.2614-18.9437 38.2614-10.3443 31.7806-10.3443 31.7806 0ZM22.3087-18.9437 22.3087-36.5165 10.5935-18.9437Z" transform="matrix(1 0 0 1.00033 3348.59 1164.15)"/></g></g></g><path d="M0 0 281.699 219.146" stroke="#FF0000" stroke-width="6.875" stroke-miterlimit="8" stroke-dasharray="27.5 20.625" fill="none" fill-rule="evenodd" transform="matrix(-1 0 0 1 1268.2 762.5)"/><path d="M1268.5 762.5 1543.65 981.646" stroke="#FF0000" stroke-width="6.875" stroke-miterlimit="8" stroke-dasharray="27.5 20.625" fill="none" fill-rule="evenodd"/><text fill="#FF0000" font-family="Arial,Arial_MSFontService,sans-serif" font-style="italic" font-weight="400" font-size="83" transform="matrix(1 0 0 1 1028.81 715)">Tapped<tspan font-size="83" x="294.938" y="0">Cells</tspan><tspan font-size="83" x="834.953" y="1008">Feedback </tspan><tspan font-size="83" x="1219.95" y="1008">Function R</tspan></text><path d="M1575.5 1619.5 1835.51 1695.75" stroke="#FF0000" stroke-width="6.875" stroke-miterlimit="8" stroke-dasharray="27.5 20.625" fill="none" fill-rule="evenodd"/></g></svg>